<svg width="50" height="24" viewBox="0 0 50 24" fill="none" xmlns="http://www.w3.org/2000/svg">
<path fill-rule="evenodd" clip-rule="evenodd" d="M50 12.3243V11.6757C50 11.6757 38.8158 0 25 0C11.1842 0 0 11.6757 0 11.6757V12.3243C0 12.3243 8.55263 24 25 24C41.4474 24 50 12.3243 50 12.3243ZM25 21.3327C30.0868 21.3327 34.2105 17.154 34.2105 11.9993C34.2105 6.84469 30.0868 2.66602 25 2.66602C19.9132 2.66602 15.7895 6.84469 15.7895 11.9993C15.7895 17.154 19.9132 21.3327 25 21.3327Z" fill="url(#paint0_linear)"/>
<path fill-rule="evenodd" clip-rule="evenodd" d="M24.9995 17.6667C27.9062 17.6667 30.2626 15.2789 30.2626 12.3333C30.2626 9.38782 27.9062 7 24.9995 7C22.0927 7 19.7363 9.38782 19.7363 12.3333C19.7363 15.2789 22.0927 17.6667 24.9995 17.6667ZM27.6309 12.3327C28.3576 12.3327 28.9467 11.7357 28.9467 10.9993C28.9467 10.263 28.3576 9.66602 27.6309 9.66602C26.9042 9.66602 26.3151 10.263 26.3151 10.9993C26.3151 11.7357 26.9042 12.3327 27.6309 12.3327Z" fill="white"/>
<defs>
<linearGradient id="paint0_linear" x1="50" y1="12" x2="-2.05355e-07" y2="12" gradientUnits="userSpaceOnUse">
<stop stop-color="#BA8634"/>
<stop offset="0.442708" stop-color="#D5A254"/>
<stop offset="0.979167" stop-color="#F1BE75"/>
</linearGradient>
</defs>
</svg>
