<svg width="84" height="84" viewBox="0 0 84 84" fill="none" xmlns="http://www.w3.org/2000/svg">
<g filter="url(#filter0_f)">
<circle cx="42" cy="42" r="32" fill="#D57063"/>
</g>
<path fill-rule="evenodd" clip-rule="evenodd" d="M35.8125 42.2031C35.4375 41.9427 34.9154 41.8125 34.2461 41.8125H31.7188V42.5L32.3242 42.6172V46.6992L31.7188 46.8164V47.5H34.5156C35.1745 47.5 35.6836 47.3607 36.043 47.082C36.4023 46.8008 36.582 46.388 36.582 45.8438C36.582 45.5286 36.4961 45.2513 36.3242 45.0117C36.1549 44.7721 35.8997 44.6159 35.5586 44.543C35.8242 44.4388 36.026 44.2839 36.1641 44.0781C36.3047 43.8698 36.375 43.6341 36.375 43.3711C36.375 42.8529 36.1875 42.4635 35.8125 42.2031ZM33.4648 46.625V44.9844H34.6016C34.8932 44.9844 35.1068 45.0586 35.2422 45.207C35.3776 45.3529 35.4453 45.5651 35.4453 45.8438C35.4453 46.1016 35.3659 46.2969 35.207 46.4297C35.0482 46.5599 34.8177 46.625 34.5156 46.625H33.4648ZM34.2852 44.1953H33.4648V42.6914H34.2461C34.5742 42.6914 34.8203 42.7539 34.9844 42.8789C35.151 43.0039 35.2344 43.1979 35.2344 43.4609C35.2344 43.7005 35.1523 43.8828 34.9883 44.0078C34.8242 44.1328 34.5898 44.1953 34.2852 44.1953Z" fill="white"/>
<path fill-rule="evenodd" clip-rule="evenodd" d="M41.2852 42.4805C40.8346 42.0352 40.2617 41.8125 39.5664 41.8125H37.0078V42.5L37.6133 42.6172V46.6992L37.0078 46.8164V47.5H39.5664C40.2617 47.5 40.8346 47.2799 41.2852 46.8398C41.7357 46.3971 41.9609 45.8268 41.9609 45.1289V44.1875C41.9609 43.4922 41.7357 42.9232 41.2852 42.4805ZM38.7539 46.625V42.6914H39.5078C39.9167 42.6914 40.237 42.8294 40.4688 43.1055C40.7005 43.3815 40.8164 43.7396 40.8164 44.1797V45.1289C40.8164 45.5742 40.7005 45.9349 40.4688 46.2109C40.237 46.487 39.9167 46.625 39.5078 46.625H38.7539Z" fill="white"/>
<path fill-rule="evenodd" clip-rule="evenodd" d="M42.6367 46.7578L42.2305 46.8164V47.5H44.168V46.8164L43.7734 46.7461L44.0234 45.9648H45.8672L46.1172 46.7461L45.7227 46.8164V47.5H47.6602V46.8164L47.2539 46.7578L45.5352 41.8125H44.3672L42.6367 46.7578ZM45.5977 45.125H44.293L44.9336 43.1211H44.957L45.5977 45.125Z" fill="white"/>
<path d="M48.6484 42.5664L49.1133 42.5V41.8125H46.9609V42.5L47.4414 42.5781L48.9609 45.4414V46.6992L48.3516 46.8164V47.5H50.707V46.8164L50.0977 46.6992V45.5L51.6445 42.5781L52.1289 42.5V41.8125H49.9766V42.5L50.4375 42.5664L49.5547 44.4336H49.5312L48.6484 42.5664Z" fill="white"/>
<path fill-rule="evenodd" clip-rule="evenodd" d="M33 29C32.4477 29 32 29.4477 32 30V30.5H28C26.8954 30.5 26 31.3954 26 32.5V52.5C26 53.6046 26.8954 54.5 28 54.5H56C57.1046 54.5 58 53.6046 58 52.5V32.5C58 31.3954 57.1046 30.5 56 30.5H52V30C52 29.4477 51.5523 29 51 29C50.4477 29 50 29.4477 50 30V30.5H43V30C43 29.4477 42.5523 29 42 29C41.4477 29 41 29.4477 41 30V30.5H34V30C34 29.4477 33.5523 29 33 29ZM50 31H43V32C43 32.5523 42.5523 33 42 33C41.4477 33 41 32.5523 41 32V31H34V32C34 32.5523 33.5523 33 33 33C32.4477 33 32 32.5523 32 32V31H28C27.1716 31 26.5 31.6716 26.5 32.5V36H57.5V32.5C57.5 31.6716 56.8284 31 56 31H52V32C52 32.5523 51.5523 33 51 33C50.4477 33 50 32.5523 50 32V31ZM26.5 52.5V36.5H57.5V52.5C57.5 53.3284 56.8284 54 56 54H28C27.1716 54 26.5 53.3284 26.5 52.5Z" fill="white"/>
<defs>
<filter id="filter0_f" x="0" y="0" width="84" height="84" filterUnits="userSpaceOnUse" color-interpolation-filters="sRGB">
<feFlood flood-opacity="0" result="BackgroundImageFix"/>
<feBlend mode="normal" in="SourceGraphic" in2="BackgroundImageFix" result="shape"/>
<feGaussianBlur stdDeviation="5" result="effect1_foregroundBlur"/>
</filter>
</defs>
</svg>
