<svg width="32" height="32" viewBox="0 0 32 32" fill="none" xmlns="http://www.w3.org/2000/svg">
<path d="M24.5308 9.45726C24.934 8.76242 24.6975 7.87233 24.0027 7.46917C23.3079 7.06601 22.4178 7.30246 22.0146 7.99729L14.0173 21.7805L9.81238 17.0699C9.27743 16.4706 8.35794 16.4184 7.75865 16.9534C7.15936 17.4884 7.1072 18.4078 7.64216 19.0071L11.8845 23.7596C13.2195 25.2552 15.5343 24.9626 16.5178 23.2676L24.5308 9.45726Z" fill="#525252"/>
<path fill-rule="evenodd" clip-rule="evenodd" d="M32 16C32 24.8366 24.8366 32 16 32C7.16344 32 0 24.8366 0 16C0 7.16344 7.16344 0 16 0C24.8366 0 32 7.16344 32 16ZM29.0909 16C29.0909 23.2299 23.2299 29.0909 16 29.0909C8.77009 29.0909 2.90909 23.2299 2.90909 16C2.90909 8.77009 8.77009 2.90909 16 2.90909C23.2299 2.90909 29.0909 8.77009 29.0909 16Z" fill="#525252"/>
</svg>
