<svg width="84" height="84" viewBox="0 0 84 84" fill="none" xmlns="http://www.w3.org/2000/svg">
<g filter="url(#filter0_f)">
<circle cx="42" cy="42" r="32" fill="#B6B7BC"/>
</g>
<path fill-rule="evenodd" clip-rule="evenodd" d="M37.7632 39.4393H38.9964L40.1358 41.5429H40.8786V41.5L39.6454 39.2929C39.9603 39.1738 40.2055 38.994 40.381 38.7536C40.5589 38.5131 40.6478 38.231 40.6478 37.9071C40.6478 37.3976 40.488 37.0095 40.1683 36.7429C39.851 36.4762 39.3966 36.3429 38.8053 36.3429H37.0673V41.5429H37.7632V39.4393ZM38.8269 38.8786H37.7632V36.9071H38.8233C39.1887 36.9095 39.4675 36.9964 39.6599 37.1679C39.8546 37.3393 39.9519 37.5857 39.9519 37.9071C39.9519 38.2024 39.8498 38.4381 39.6454 38.6143C39.4435 38.7905 39.1707 38.8786 38.8269 38.8786Z" fill="white"/>
<path d="M41.6719 41.5429H42.3642V36.3429H41.6719V41.5429Z" fill="white"/>
<path fill-rule="evenodd" clip-rule="evenodd" d="M44.3257 41.5429V39.5071H45.5625C46.1562 39.5071 46.6118 39.3714 46.9291 39.1C47.2488 38.8262 47.4087 38.4369 47.4087 37.9321C47.4087 37.4536 47.2452 37.069 46.9183 36.7786C46.5938 36.4881 46.1442 36.3429 45.5697 36.3429H43.6334V41.5429H44.3257ZM45.5697 38.9464H44.3257V36.9071H45.6094C45.9531 36.9143 46.2236 37.0107 46.4207 37.1964C46.6178 37.3821 46.7163 37.6298 46.7163 37.9393C46.7163 38.2655 46.6178 38.5155 46.4207 38.6893C46.2236 38.8607 45.9399 38.9464 45.5697 38.9464Z" fill="white"/>
<path d="M38.3077 44.7429C38.3077 44.4904 38.5143 44.2857 38.7692 44.2857H45.2308C45.4857 44.2857 45.6923 44.4904 45.6923 44.7429C45.6923 44.9953 45.4857 45.2 45.2308 45.2H38.7692C38.5143 45.2 38.3077 44.9953 38.3077 44.7429Z" fill="white"/>
<path d="M38.7692 47.0286C38.5143 47.0286 38.3077 47.2332 38.3077 47.4857C38.3077 47.7382 38.5143 47.9429 38.7692 47.9429H45.2308C45.4857 47.9429 45.6923 47.7382 45.6923 47.4857C45.6923 47.2332 45.4857 47.0286 45.2308 47.0286H38.7692Z" fill="white"/>
<path fill-rule="evenodd" clip-rule="evenodd" d="M30.9231 54.5875C30.3713 54.9037 30 55.4946 30 56.1714V58H54V56.1714C54 55.4946 53.6287 54.9037 53.0769 54.5875V36.9714C53.0769 30.9121 48.1176 26 42 26C35.8824 26 30.9231 30.9121 30.9231 36.9714V54.5875ZM52.1538 54.3429V36.9714C52.1538 31.417 47.6078 26.9143 42 26.9143C36.3922 26.9143 31.8462 31.417 31.8462 36.9714V54.3429H52.1538ZM30.9231 56.1714C30.9231 55.6665 31.3364 55.2571 31.8462 55.2571H52.1538C52.6636 55.2571 53.0769 55.6665 53.0769 56.1714V57.0857H30.9231V56.1714Z" fill="white"/>
<defs>
<filter id="filter0_f" x="0" y="0" width="84" height="84" filterUnits="userSpaceOnUse" color-interpolation-filters="sRGB">
<feFlood flood-opacity="0" result="BackgroundImageFix"/>
<feBlend mode="normal" in="SourceGraphic" in2="BackgroundImageFix" result="shape"/>
<feGaussianBlur stdDeviation="5" result="effect1_foregroundBlur"/>
</filter>
</defs>
</svg>
