<svg width="385" height="204" viewBox="0 0 385 204" fill="none" xmlns="http://www.w3.org/2000/svg">
<g clip-path="url(#clip0)">
<g opacity="0.2">
<path opacity="0.2" d="M178.52 111.552C178.52 101.895 175.552 93.1203 170.713 86.5913C172.427 83.0212 173.21 79.0734 172.988 75.1174C172.766 71.1614 171.546 67.3265 169.443 63.9718C167.341 60.617 164.424 57.852 160.965 55.9355C157.506 54.0191 153.619 53.0138 149.667 53.0138C145.716 53.0138 141.829 54.0191 138.37 55.9355C134.911 57.852 131.994 60.617 129.891 63.9718C127.789 67.3265 126.569 71.1614 126.347 75.1174C126.125 79.0734 126.908 83.0212 128.622 86.5913C123.783 93.1203 120.814 101.895 120.814 111.552C120.814 121.208 123.783 129.983 128.622 136.512C126.908 140.082 126.125 144.03 126.347 147.986C126.569 151.942 127.789 155.777 129.891 159.131C131.994 162.486 134.911 165.251 138.37 167.168C141.829 169.084 145.716 170.089 149.667 170.089C153.619 170.089 157.506 169.084 160.965 167.168C164.424 165.251 167.341 162.486 169.443 159.131C171.546 155.777 172.766 151.942 172.988 147.986C173.21 144.03 172.427 140.082 170.713 136.512C175.552 129.983 178.52 121.208 178.52 111.552Z" fill="#B6B7BC"/>
<path opacity="0.1" d="M178.52 111.552C178.52 101.895 175.552 93.1203 170.713 86.5913C172.427 83.0212 173.21 79.0734 172.988 75.1174C172.766 71.1614 171.546 67.3265 169.443 63.9718C167.341 60.617 164.424 57.852 160.965 55.9355C157.506 54.0191 153.619 53.0138 149.667 53.0138C145.716 53.0138 141.829 54.0191 138.37 55.9355C134.911 57.852 131.994 60.617 129.891 63.9718C127.789 67.3265 126.569 71.1614 126.347 75.1174C126.125 79.0734 126.908 83.0212 128.622 86.5913C123.783 93.1203 120.814 101.895 120.814 111.552C120.814 121.208 123.783 129.983 128.622 136.512C126.908 140.082 126.125 144.03 126.347 147.986C126.569 151.942 127.789 155.777 129.891 159.131C131.994 162.486 134.911 165.251 138.37 167.168C141.829 169.084 145.716 170.089 149.667 170.089C153.619 170.089 157.506 169.084 160.965 167.168C164.424 165.251 167.341 162.486 169.443 159.131C171.546 155.777 172.766 151.942 172.988 147.986C173.21 144.03 172.427 140.082 170.713 136.512C175.552 129.983 178.52 121.208 178.52 111.552Z" fill="#B6B7BC"/>
<path opacity="0.2" d="M179.893 111.552C179.893 101.895 176.925 93.1202 172.086 86.5913C173.8 83.0211 174.583 79.0733 174.361 75.1173C174.139 71.1614 172.919 67.3265 170.816 63.9718C168.714 60.617 165.797 57.852 162.338 55.9355C158.879 54.0191 154.992 53.0138 151.04 53.0138C147.089 53.0138 143.202 54.0191 139.743 55.9355C136.284 57.852 133.367 60.617 131.264 63.9718C129.162 67.3265 127.942 71.1614 127.72 75.1173C127.498 79.0733 128.281 83.0211 129.995 86.5913C125.156 93.1202 122.188 101.895 122.188 111.552C122.188 121.208 125.156 129.983 129.995 136.512C128.281 140.082 127.498 144.03 127.72 147.986C127.942 151.942 129.162 155.777 131.264 159.131C133.367 162.486 136.284 165.251 139.743 167.168C143.202 169.084 147.089 170.089 151.04 170.089C154.992 170.089 158.879 169.084 162.338 167.168C165.797 165.251 168.714 162.486 170.816 159.131C172.919 155.777 174.139 151.942 174.361 147.986C174.583 144.03 173.8 140.082 172.086 136.512C176.925 129.983 179.893 121.208 179.893 111.552Z" fill="#B6B7BC"/>
<path opacity="0.2" d="M153.789 200.409H148.293L151.041 109.485L153.789 200.409Z" fill="#B6B7BC"/>
<path opacity="0.2" d="M151.729 132.209L169.59 124.639L151.729 134.282V132.209Z" fill="#B6B7BC"/>
<path opacity="0.2" d="M150.105 140.482L144.859 134.282L150.001 143.926L150.105 140.482Z" fill="#B6B7BC"/>
</g>
<g opacity="0.2">
<path opacity="0.2" d="M220.426 142.755C220.426 136.514 218.507 130.842 215.38 126.622C216.488 124.315 216.994 121.763 216.85 119.206C216.707 116.65 215.918 114.171 214.559 112.003C213.2 109.834 211.315 108.047 209.079 106.809C206.844 105.57 204.332 104.92 201.777 104.92C199.223 104.92 196.711 105.57 194.476 106.809C192.24 108.047 190.355 109.834 188.996 112.003C187.637 114.171 186.848 116.65 186.705 119.206C186.561 121.763 187.067 124.315 188.175 126.622C185.047 130.842 183.129 136.514 183.129 142.755C183.129 148.996 185.048 154.668 188.175 158.888C187.067 161.195 186.561 163.747 186.705 166.304C186.848 168.86 187.637 171.339 188.996 173.507C190.355 175.676 192.24 177.463 194.476 178.701C196.711 179.94 199.223 180.59 201.777 180.59C204.332 180.59 206.844 179.94 209.079 178.701C211.315 177.463 213.2 175.676 214.559 173.507C215.918 171.339 216.707 168.86 216.85 166.304C216.994 163.747 216.488 161.195 215.38 158.888C218.507 154.668 220.426 148.996 220.426 142.755Z" fill="#B6B7BC"/>
<path opacity="0.1" d="M220.426 142.755C220.426 136.514 218.507 130.842 215.38 126.622C216.488 124.315 216.994 121.763 216.85 119.206C216.707 116.65 215.918 114.171 214.559 112.003C213.2 109.834 211.315 108.047 209.079 106.809C206.844 105.57 204.332 104.92 201.777 104.92C199.223 104.92 196.711 105.57 194.476 106.809C192.24 108.047 190.355 109.834 188.996 112.003C187.637 114.171 186.848 116.65 186.705 119.206C186.561 121.763 187.067 124.315 188.175 126.622C185.047 130.842 183.129 136.514 183.129 142.755C183.129 148.996 185.048 154.668 188.175 158.888C187.067 161.195 186.561 163.747 186.705 166.304C186.848 168.86 187.637 171.339 188.996 173.507C190.355 175.676 192.24 177.463 194.476 178.701C196.711 179.94 199.223 180.59 201.777 180.59C204.332 180.59 206.844 179.94 209.079 178.701C211.315 177.463 213.2 175.676 214.559 173.507C215.918 171.339 216.707 168.86 216.85 166.304C216.994 163.747 216.488 161.195 215.38 158.888C218.507 154.668 220.426 148.996 220.426 142.755Z" fill="#B6B7BC"/>
<path opacity="0.2" d="M221.315 142.755C221.315 136.514 219.396 130.842 216.269 126.622C217.376 124.315 217.882 121.763 217.739 119.206C217.595 116.65 216.807 114.171 215.448 112.003C214.089 109.834 212.203 108.047 209.968 106.809C207.733 105.57 205.22 104.92 202.666 104.92C200.112 104.92 197.6 105.57 195.364 106.809C193.129 108.047 191.243 109.834 189.884 112.003C188.525 114.171 187.737 116.65 187.594 119.206C187.45 121.763 187.956 124.315 189.064 126.622C185.936 130.842 184.018 136.514 184.018 142.755C184.018 148.996 185.936 154.668 189.064 158.888C187.956 161.195 187.45 163.747 187.594 166.304C187.737 168.86 188.525 171.339 189.884 173.507C191.243 175.676 193.129 177.463 195.364 178.701C197.6 179.94 200.112 180.59 202.666 180.59C205.22 180.59 207.733 179.94 209.968 178.701C212.203 177.463 214.089 175.676 215.448 173.507C216.807 171.339 217.595 168.86 217.739 166.304C217.882 163.747 217.376 161.195 216.269 158.888C219.396 154.668 221.315 148.996 221.315 142.755Z" fill="#B6B7BC"/>
<path opacity="0.2" d="M204.441 200.186H200.889L202.665 141.419L204.441 200.186Z" fill="#B6B7BC"/>
<path opacity="0.2" d="M203.109 156.107L214.654 151.214L203.109 157.447V156.107Z" fill="#B6B7BC"/>
<path opacity="0.2" d="M202.061 161.453L198.67 157.447L201.993 163.679L202.061 161.453Z" fill="#B6B7BC"/>
</g>
<path d="M164.037 178.074H163.4V187.646H164.037V178.074Z" fill="#535461"/>
<path d="M164.355 188.922H162.764V200.09H164.355V188.922Z" fill="#535461"/>
<path d="M198.085 188.922H196.494V200.09H198.085V188.922Z" fill="#535461"/>
<path opacity="0.1" d="M164.355 188.922H162.764V200.09H164.355V188.922Z" fill="black"/>
<path opacity="0.1" d="M198.085 188.922H196.494V200.09H198.085V188.922Z" fill="black"/>
<path d="M197.131 187.646H197.768V178.074H197.131V187.646Z" fill="#535461"/>
<path opacity="0.1" d="M164.037 178.074H163.4V187.646H164.037V178.074Z" fill="black"/>
<path opacity="0.1" d="M197.131 187.646H197.768V178.074H197.131V187.646Z" fill="black"/>
<path d="M200.632 177.436H160.537V179.351H200.632V177.436Z" fill="#535461"/>
<path d="M200.632 180.627H160.537V182.541H200.632V180.627Z" fill="#535461"/>
<path d="M200.632 183.818H160.537V185.732H200.632V183.818Z" fill="#535461"/>
<path d="M200.632 187.327H160.537V190.837H200.632V187.327Z" fill="#535461"/>
<path d="M126.011 62.4148H111.691V90.1731H126.011V62.4148Z" fill="#E0E0E0"/>
<path d="M140.809 105.01V199.771H12.252V105.01L23.0709 98.3411L33.2538 92.0618L76.6893 65.2861L140.809 105.01Z" fill="#EEEEEE"/>
<path opacity="0.1" d="M124.579 199.771V100.105L122.67 101.283V199.771H124.579Z" fill="black"/>
<path d="M90.8478 155.581H62.209V199.611H90.8478V155.581Z" fill="#B6B7BC"/>
<path d="M86.5521 178.872C87.2551 178.872 87.825 178.301 87.825 177.596C87.825 176.891 87.2551 176.32 86.5521 176.32C85.8492 176.32 85.2793 176.891 85.2793 177.596C85.2793 178.301 85.8492 178.872 86.5521 178.872Z" fill="#535461"/>
<path opacity="0.1" d="M126.011 62.7338H111.691V64.3291H126.011V62.7338Z" fill="black"/>
<path d="M128.239 60.8195H109.146V64.0101H128.239V60.8195Z" fill="#E0E0E0"/>
<path opacity="0.1" d="M140.809 127.344H12.252V129.896H140.809V127.344Z" fill="black"/>
<path d="M140.809 127.025H12.252V129.577H140.809V127.025Z" fill="white"/>
<path opacity="0.1" d="M124.578 60.8195H121.078V90.1731H124.578V60.8195Z" fill="black"/>
<path opacity="0.1" d="M119.488 60.9789H118.533V90.3325H119.488V60.9789Z" fill="black"/>
<path opacity="0.1" d="M137.626 101.181V199.771H127.443V98.3411L137.626 101.181Z" fill="black"/>
<path opacity="0.1" d="M30.3899 92.0618V199.77H20.207V98.3411L30.3899 92.0618Z" fill="black"/>
<path opacity="0.1" d="M17.3429 199.771V100.105L15.4336 101.283V199.771H17.3429Z" fill="black"/>
<path opacity="0.1" d="M76.6886 54.7571L0 110.593L5.0912 118.889L76.6886 70.0721L148.285 118.889L153.377 110.593L76.6886 54.7571Z" fill="black"/>
<path d="M76.6886 54.1193L0 109.955L5.0912 118.25L76.6886 69.4342L148.285 118.25L153.377 109.955L76.6886 54.1193Z" fill="#B6B7BC"/>
<path opacity="0.7" d="M49.6397 144.733H22.9102V171.534H49.6397V144.733Z" fill="#B6B7BC"/>
<path opacity="0.1" d="M50.4357 170.736H21.7969V173.927H50.4357V170.736Z" fill="black"/>
<path d="M50.4357 170.098H21.7969V173.288H50.4357V170.098Z" fill="#535461"/>
<path opacity="0.15" d="M34.0868 144.892L23.0703 160.134V152.368L29.2627 144.892H34.0868Z" fill="white"/>
<path opacity="0.15" d="M43.5505 144.892L23.0703 166.467V162.661L38.3538 144.892H43.5505Z" fill="white"/>
<path d="M22.9102 158.133H49.6397" stroke="#535461" stroke-width="2" stroke-miterlimit="10"/>
<path d="M23.0703 144.892H49.7999" stroke="#535461" stroke-width="2" stroke-miterlimit="10"/>
<path d="M49.4824 144.892V171.693" stroke="#535461" stroke-width="2" stroke-miterlimit="10"/>
<path d="M23.0703 144.573V171.374" stroke="#535461" stroke-width="2" stroke-miterlimit="10"/>
<path opacity="0.7" d="M103.419 171.534H130.148V144.733H103.419V171.534Z" fill="#B6B7BC"/>
<path opacity="0.1" d="M102.623 173.927H131.262V170.736H102.623V173.927Z" fill="black"/>
<path d="M102.623 173.288H131.262V170.098H102.623V173.288Z" fill="#535461"/>
<path opacity="0.15" d="M118.973 144.892L129.989 160.134V152.368L123.797 144.892H118.973Z" fill="white"/>
<path opacity="0.15" d="M109.508 144.892L129.987 166.467V162.661L114.704 144.892H109.508Z" fill="white"/>
<path d="M130.148 158.133H103.418" stroke="#535461" stroke-width="2" stroke-miterlimit="10"/>
<path d="M129.989 144.892H103.26" stroke="#535461" stroke-width="2" stroke-miterlimit="10"/>
<path d="M103.578 144.892V171.693" stroke="#535461" stroke-width="2" stroke-miterlimit="10"/>
<path d="M129.988 144.573V171.374" stroke="#535461" stroke-width="2" stroke-miterlimit="10"/>
<path opacity="0.7" d="M63.0048 116.974H89.7344V90.173H63.0048V116.974Z" fill="#B6B7BC"/>
<path opacity="0.1" d="M62.2107 119.367H90.8496V116.176H62.2107V119.367Z" fill="black"/>
<path d="M62.2107 118.729H90.8496V115.538H62.2107V118.729Z" fill="#535461"/>
<path opacity="0.15" d="M78.5586 90.3325L89.575 105.574V97.8082L83.3827 90.3325H78.5586Z" fill="white"/>
<path opacity="0.15" d="M69.0957 90.3325L89.5753 111.908V108.101L74.2919 90.3325H69.0957Z" fill="white"/>
<path d="M89.7354 103.574H63.0059" stroke="#535461" stroke-width="2" stroke-miterlimit="10"/>
<path d="M89.5753 90.3325H62.8457" stroke="#535461" stroke-width="2" stroke-miterlimit="10"/>
<path d="M76.3711 90.1731V116.974" stroke="#535461" stroke-width="2" stroke-miterlimit="10"/>
<path d="M63.1641 90.3325V117.134" stroke="#535461" stroke-width="2" stroke-miterlimit="10"/>
<path d="M89.5762 90.0135V116.815" stroke="#535461" stroke-width="2" stroke-miterlimit="10"/>
<path opacity="0.1" d="M355.281 126.706H347.008V199.771H355.281V126.706Z" fill="black"/>
<path d="M339.53 62.4148H325.211V90.1731H339.53V62.4148Z" fill="#E0E0E0"/>
<path d="M354.326 105.01V199.771H225.77V105.01L236.589 98.3411L246.771 92.0618L290.207 65.2861L354.326 105.01Z" fill="#EEEEEE"/>
<path d="M304.367 155.581H275.729V199.611H304.367V155.581Z" fill="#B6B7BC"/>
<path d="M300.072 178.872C300.775 178.872 301.345 178.301 301.345 177.596C301.345 176.891 300.775 176.32 300.072 176.32C299.369 176.32 298.799 176.891 298.799 177.596C298.799 178.301 299.369 178.872 300.072 178.872Z" fill="#535461"/>
<path opacity="0.1" d="M339.53 62.7338H325.211V64.3291H339.53V62.7338Z" fill="black"/>
<path d="M341.757 60.8195H322.664V64.0101H341.757V60.8195Z" fill="#E0E0E0"/>
<path opacity="0.1" d="M354.326 127.344H225.77V129.896H354.326V127.344Z" fill="black"/>
<path d="M354.326 127.025H225.77V129.577H354.326V127.025Z" fill="white"/>
<path opacity="0.1" d="M338.098 60.8195H334.598V90.1731H338.098V60.8195Z" fill="black"/>
<path opacity="0.1" d="M333.005 60.9789H332.051V90.3325H333.005V60.9789Z" fill="black"/>
<path opacity="0.1" d="M351.144 101.181V199.771H340.961V98.3411L351.144 101.181Z" fill="black"/>
<path opacity="0.1" d="M243.908 92.0618V199.77H233.725V98.3411L243.908 92.0618Z" fill="black"/>
<path opacity="0.1" d="M230.86 199.771V100.105L228.951 101.283V199.771H230.86Z" fill="black"/>
<path opacity="0.1" d="M290.208 54.7571L213.52 110.593L218.611 118.889L290.208 70.0721L361.805 118.889L366.897 110.593L290.208 54.7571Z" fill="black"/>
<path d="M290.208 54.1193L213.52 109.955L218.611 118.25L290.208 69.4342L361.805 118.25L366.897 109.955L290.208 54.1193Z" fill="#B6B7BC"/>
<path opacity="0.7" d="M263.159 144.733H236.43V171.534H263.159V144.733Z" fill="#B6B7BC"/>
<path opacity="0.1" d="M263.955 170.736H235.316V173.927H263.955V170.736Z" fill="black"/>
<path d="M263.955 170.098H235.316V173.288H263.955V170.098Z" fill="#535461"/>
<path opacity="0.15" d="M247.604 144.892L236.588 160.134V152.368L242.78 144.892H247.604Z" fill="white"/>
<path opacity="0.15" d="M257.068 144.892L236.588 166.467V162.661L251.872 144.892H257.068Z" fill="white"/>
<path d="M236.43 158.133H263.159" stroke="#535461" stroke-width="2" stroke-miterlimit="10"/>
<path d="M236.59 144.892H263.319" stroke="#535461" stroke-width="2" stroke-miterlimit="10"/>
<path d="M263 144.892V171.693" stroke="#535461" stroke-width="2" stroke-miterlimit="10"/>
<path d="M236.59 144.573V171.374" stroke="#535461" stroke-width="2" stroke-miterlimit="10"/>
<path opacity="0.7" d="M316.936 171.534H343.666V144.733H316.936V171.534Z" fill="#B6B7BC"/>
<path opacity="0.1" d="M316.14 173.927H344.779V170.736H316.14V173.927Z" fill="black"/>
<path d="M316.14 173.288H344.779V170.098H316.14V173.288Z" fill="#535461"/>
<path opacity="0.15" d="M332.49 144.892L343.507 160.134V152.368L337.314 144.892H332.49Z" fill="white"/>
<path opacity="0.15" d="M323.027 144.892L343.507 166.467V162.661L328.224 144.892H323.027Z" fill="white"/>
<path d="M343.667 158.133H316.938" stroke="#535461" stroke-width="2" stroke-miterlimit="10"/>
<path d="M343.507 144.892H316.777" stroke="#535461" stroke-width="2" stroke-miterlimit="10"/>
<path d="M317.096 144.892V171.693" stroke="#535461" stroke-width="2" stroke-miterlimit="10"/>
<path d="M343.508 144.573V171.374" stroke="#535461" stroke-width="2" stroke-miterlimit="10"/>
<path opacity="0.7" d="M276.524 116.974H303.254V90.173H276.524V116.974Z" fill="#B6B7BC"/>
<path opacity="0.1" d="M275.728 119.367H304.367V116.176H275.728V119.367Z" fill="black"/>
<path d="M275.728 118.729H304.367V115.538H275.728V118.729Z" fill="#535461"/>
<path opacity="0.15" d="M292.078 90.3325L303.095 105.574V97.8082L296.902 90.3325H292.078Z" fill="white"/>
<path opacity="0.15" d="M282.615 90.3325L303.095 111.908V108.101L287.811 90.3325H282.615Z" fill="white"/>
<path d="M303.253 103.574H276.523" stroke="#535461" stroke-width="2" stroke-miterlimit="10"/>
<path d="M303.095 90.3325H276.365" stroke="#535461" stroke-width="2" stroke-miterlimit="10"/>
<path d="M289.889 90.1731V116.974" stroke="#535461" stroke-width="2" stroke-miterlimit="10"/>
<path d="M276.684 90.3325V117.134" stroke="#535461" stroke-width="2" stroke-miterlimit="10"/>
<path d="M303.094 90.0135V116.815" stroke="#535461" stroke-width="2" stroke-miterlimit="10"/>
<path d="M150.671 158.612C150.725 154.47 149.458 150.419 147.055 147.05C147.849 145.396 148.211 143.568 148.108 141.735C148.005 139.903 147.441 138.126 146.467 136.573C145.493 135.019 144.141 133.738 142.539 132.85C140.937 131.962 139.137 131.497 137.306 131.497C135.476 131.497 133.675 131.962 132.073 132.85C130.471 133.738 129.12 135.019 128.146 136.573C127.172 138.126 126.607 139.903 126.504 141.735C126.401 143.568 126.764 145.396 127.558 147.05C125.203 150.443 123.941 154.478 123.941 158.612C123.941 162.745 125.203 166.78 127.558 170.173C126.764 171.827 126.401 173.656 126.504 175.488C126.607 177.321 127.172 179.097 128.146 180.651C129.12 182.205 130.471 183.486 132.073 184.373C133.675 185.261 135.476 185.727 137.306 185.727C139.137 185.727 140.937 185.261 142.539 184.373C144.141 183.486 145.493 182.205 146.467 180.651C147.441 179.097 148.005 177.321 148.108 175.488C148.211 173.656 147.849 171.827 147.055 170.173C149.458 166.804 150.725 162.754 150.671 158.612Z" fill="#81B34C"/>
<path opacity="0.1" d="M150.671 158.612C150.725 154.47 149.458 150.419 147.055 147.05C147.849 145.396 148.211 143.568 148.108 141.735C148.005 139.903 147.441 138.126 146.467 136.573C145.493 135.019 144.141 133.738 142.539 132.85C140.937 131.962 139.137 131.497 137.306 131.497C135.476 131.497 133.675 131.962 132.073 132.85C130.471 133.738 129.12 135.019 128.146 136.573C127.172 138.126 126.607 139.903 126.504 141.735C126.401 143.568 126.764 145.396 127.558 147.05C125.203 150.443 123.941 154.478 123.941 158.612C123.941 162.745 125.203 166.78 127.558 170.173C126.764 171.827 126.401 173.656 126.504 175.488C126.607 177.321 127.172 179.097 128.146 180.651C129.12 182.205 130.471 183.486 132.073 184.373C133.675 185.261 135.476 185.727 137.306 185.727C139.137 185.727 140.937 185.261 142.539 184.373C144.141 183.486 145.493 182.205 146.467 180.651C147.441 179.097 148.005 177.321 148.108 175.488C148.211 173.656 147.849 171.827 147.055 170.173C149.458 166.804 150.725 162.754 150.671 158.612Z" fill="black"/>
<path d="M151.308 158.612C151.362 154.47 150.095 150.419 147.691 147.05C148.485 145.396 148.848 143.568 148.745 141.735C148.642 139.903 148.077 138.126 147.103 136.573C146.129 135.019 144.778 133.738 143.176 132.85C141.574 131.962 139.773 131.497 137.943 131.497C136.113 131.497 134.312 131.962 132.71 132.85C131.108 133.738 129.757 135.019 128.783 136.573C127.809 138.126 127.244 139.903 127.141 141.735C127.038 143.568 127.401 145.396 128.194 147.05C125.84 150.443 124.578 154.478 124.578 158.612C124.578 162.745 125.84 166.78 128.194 170.173C127.401 171.827 127.038 173.656 127.141 175.488C127.244 177.321 127.809 179.097 128.783 180.651C129.757 182.205 131.108 183.486 132.71 184.373C134.312 185.261 136.113 185.727 137.943 185.727C139.773 185.727 141.574 185.261 143.176 184.373C144.778 183.486 146.129 182.205 147.103 180.651C148.077 179.097 148.642 177.321 148.745 175.488C148.848 173.656 148.485 171.827 147.691 170.173C150.095 166.804 151.362 162.754 151.308 158.612Z" fill="#81B34C"/>
<path d="M139.216 199.771H136.67L137.943 157.654L139.216 199.771Z" fill="#5D291B"/>
<path d="M138.262 168.18L146.535 164.674L138.262 169.141V168.18Z" fill="#5D291B"/>
<path d="M137.51 172.012L135.08 169.141L137.462 173.608L137.51 172.012Z" fill="#5D291B"/>
<path d="M238.816 158.612C238.87 154.47 237.603 150.419 235.199 147.05C235.993 145.396 236.356 143.568 236.253 141.735C236.15 139.903 235.585 138.126 234.611 136.573C233.637 135.019 232.286 133.738 230.684 132.85C229.082 131.962 227.281 131.497 225.451 131.497C223.62 131.497 221.82 131.962 220.218 132.85C218.616 133.738 217.264 135.019 216.29 136.573C215.316 138.126 214.752 139.903 214.649 141.735C214.546 143.568 214.908 145.396 215.702 147.05C213.348 150.443 212.086 154.478 212.086 158.612C212.086 162.745 213.348 166.78 215.702 170.173C214.908 171.827 214.546 173.656 214.649 175.488C214.752 177.32 215.316 179.097 216.29 180.651C217.264 182.205 218.616 183.485 220.218 184.373C221.82 185.261 223.62 185.726 225.451 185.726C227.281 185.726 229.082 185.261 230.684 184.373C232.286 183.485 233.637 182.205 234.611 180.651C235.585 179.097 236.15 177.32 236.253 175.488C236.356 173.656 235.993 171.827 235.199 170.173C237.603 166.804 238.87 162.753 238.816 158.612Z" fill="#81B34C"/>
<path opacity="0.1" d="M238.816 158.612C238.87 154.47 237.603 150.419 235.199 147.05C235.993 145.396 236.356 143.568 236.253 141.735C236.15 139.903 235.585 138.126 234.611 136.573C233.637 135.019 232.286 133.738 230.684 132.85C229.082 131.962 227.281 131.497 225.451 131.497C223.62 131.497 221.82 131.962 220.218 132.85C218.616 133.738 217.264 135.019 216.29 136.573C215.316 138.126 214.752 139.903 214.649 141.735C214.546 143.568 214.908 145.396 215.702 147.05C213.348 150.443 212.086 154.478 212.086 158.612C212.086 162.745 213.348 166.78 215.702 170.173C214.908 171.827 214.546 173.656 214.649 175.488C214.752 177.32 215.316 179.097 216.29 180.651C217.264 182.205 218.616 183.485 220.218 184.373C221.82 185.261 223.62 185.726 225.451 185.726C227.281 185.726 229.082 185.261 230.684 184.373C232.286 183.485 233.637 182.205 234.611 180.651C235.585 179.097 236.15 177.32 236.253 175.488C236.356 173.656 235.993 171.827 235.199 170.173C237.603 166.804 238.87 162.753 238.816 158.612Z" fill="black"/>
<path d="M239.452 158.612C239.507 154.47 238.24 150.419 235.836 147.05C236.63 145.396 236.992 143.568 236.89 141.735C236.787 139.903 236.222 138.126 235.248 136.573C234.274 135.019 232.923 133.738 231.321 132.85C229.718 131.962 227.918 131.497 226.087 131.497C224.257 131.497 222.457 131.962 220.854 132.85C219.252 133.738 217.901 135.019 216.927 136.573C215.953 138.126 215.388 139.903 215.285 141.735C215.183 143.568 215.545 145.396 216.339 147.05C213.985 150.443 212.723 154.478 212.723 158.612C212.723 162.745 213.985 166.78 216.339 170.173C215.545 171.827 215.183 173.656 215.285 175.488C215.388 177.321 215.953 179.097 216.927 180.651C217.901 182.205 219.252 183.486 220.854 184.373C222.457 185.261 224.257 185.727 226.087 185.727C227.918 185.727 229.718 185.261 231.321 184.373C232.923 183.486 234.274 182.205 235.248 180.651C236.222 179.097 236.787 177.321 236.89 175.488C236.992 173.656 236.63 171.827 235.836 170.173C238.24 166.804 239.507 162.754 239.452 158.612Z" fill="#81B34C"/>
<path d="M227.36 199.771H224.814L226.087 157.654L227.36 199.771Z" fill="#5D291B"/>
<path d="M226.406 168.18L234.679 164.674L226.406 169.141V168.18Z" fill="#5D291B"/>
<path d="M225.653 172.012L223.223 169.141L225.605 173.608L225.653 172.012Z" fill="#5D291B"/>
<g opacity="0.7">
<path opacity="0.7" d="M175.376 186.052L175.114 186.002L175.631 184.092C176.445 177.97 173.369 177.353 172.216 177.332C172.083 177.283 171.948 177.242 171.811 177.209V176.487C172.536 176.307 173.193 175.918 173.701 175.368C174.208 174.818 174.544 174.131 174.666 173.391L174.676 173.392C174.859 173.392 175.008 173.113 175.008 172.768C175.015 172.585 174.964 172.405 174.863 172.253C174.876 172.121 174.883 171.987 174.883 171.852C174.884 171.313 174.775 170.779 174.564 170.283C174.353 169.788 174.044 169.34 173.655 168.967C173.602 168.701 173.507 168.444 173.373 168.207C173.09 167.707 172.619 167.185 172.811 166.644L171.567 166.772L171.556 165.95C171.168 166.02 171.005 166.471 170.775 166.792C170.221 167.564 169.11 167.672 168.375 168.273C168.125 168.478 167.563 169.1 167.669 169.508C167.175 170.189 166.91 171.01 166.911 171.852C166.911 171.987 166.918 172.121 166.931 172.253C166.83 172.405 166.779 172.585 166.786 172.768C166.786 173.113 166.935 173.392 167.119 173.392L167.125 173.391C167.248 174.131 167.585 174.818 168.093 175.368C168.601 175.918 169.258 176.307 169.984 176.487V177.209C169.846 177.242 169.711 177.283 169.578 177.332C168.425 177.353 165.349 177.97 166.164 184.092L166.68 186.003L166.557 186.026C166.188 186.095 165.861 186.308 165.649 186.619C165.436 186.93 165.355 187.313 165.424 187.683L167.463 198.632C167.484 198.745 167.548 198.844 167.642 198.908C167.736 198.973 167.851 198.997 167.963 198.976L168.323 198.909V199.122C168.123 199.221 167.956 199.374 167.838 199.563C167.721 199.752 167.659 199.971 167.658 200.194V200.329H170.067V200.194C170.067 199.987 170.013 199.784 169.911 199.604C169.809 199.424 169.663 199.274 169.485 199.168V198.691L169.814 198.63C169.869 198.62 169.922 198.598 169.969 198.568C170.016 198.537 170.057 198.497 170.089 198.45C170.121 198.404 170.143 198.351 170.155 198.296C170.166 198.241 170.167 198.184 170.157 198.128L168.241 187.839H173.553L171.638 198.128C171.617 198.24 171.641 198.356 171.705 198.45C171.77 198.544 171.869 198.609 171.981 198.63L172.309 198.691V199.168C172.132 199.274 171.985 199.424 171.883 199.604C171.781 199.784 171.728 199.987 171.728 200.194V200.329H174.136V200.194C174.136 199.971 174.074 199.752 173.956 199.563C173.839 199.374 173.671 199.221 173.472 199.122V198.909L173.831 198.976C173.943 198.997 174.058 198.973 174.152 198.908C174.246 198.844 174.311 198.745 174.332 198.632L176.396 187.543C176.427 187.378 176.425 187.209 176.39 187.044C176.355 186.88 176.289 186.724 176.194 186.586C176.099 186.447 175.979 186.329 175.838 186.237C175.698 186.145 175.541 186.082 175.376 186.052Z" fill="url(#paint0_linear)"/>
</g>
<path d="M169.538 197.515H168.42V199.037H169.538V197.515Z" fill="#FDB797"/>
<path d="M173.374 197.515H172.256V199.037H173.374V197.515Z" fill="#FDB797"/>
<path d="M174.574 185.017H167.223V187.661H174.574V185.017Z" fill="#4D8AF0"/>
<g opacity="0.05">
<path opacity="0.05" d="M174.574 185.017H167.223V187.661H174.574V185.017Z" fill="black"/>
</g>
<path opacity="0.1" d="M167.223 185.498C168.432 185.793 169.66 186.007 170.898 186.139C172.136 186.007 173.364 185.793 174.574 185.498V185.097H167.223V185.498Z" fill="black"/>
<path d="M174.574 185.418C173.364 185.713 172.136 185.927 170.898 186.059C169.66 185.927 168.432 185.713 167.223 185.418V181.012C167.223 180.528 167.318 180.048 167.502 179.601C167.687 179.154 167.958 178.748 168.299 178.406C168.64 178.063 169.046 177.792 169.492 177.607C169.938 177.422 170.415 177.326 170.898 177.326C171.381 177.326 171.859 177.422 172.305 177.607C172.751 177.792 173.156 178.063 173.497 178.406C173.838 178.748 174.109 179.154 174.294 179.601C174.478 180.048 174.574 180.528 174.574 181.012V185.418Z" fill="#F55F44"/>
<path d="M170.018 175.484H171.775V177.503C171.775 177.616 171.753 177.729 171.71 177.834C171.666 177.939 171.603 178.034 171.523 178.114C171.443 178.195 171.348 178.258 171.243 178.302C171.138 178.345 171.026 178.368 170.913 178.368H170.88C170.767 178.368 170.655 178.345 170.55 178.302C170.445 178.258 170.35 178.195 170.27 178.114C170.19 178.034 170.127 177.939 170.083 177.834C170.04 177.729 170.018 177.616 170.018 177.503V175.484H170.018Z" fill="#FDB797"/>
<path d="M169.67 198.078L168.261 198.342C168.104 198.371 167.942 198.337 167.81 198.247C167.679 198.156 167.588 198.017 167.559 197.86L165.747 188.125C165.65 187.606 165.763 187.069 166.061 186.634C166.359 186.198 166.817 185.898 167.335 185.802L167.383 185.793C167.46 185.778 167.54 185.779 167.617 185.795C167.695 185.812 167.768 185.843 167.833 185.888C167.898 185.933 167.954 185.99 167.997 186.056C168.04 186.123 168.07 186.197 168.084 186.275L170.151 197.375C170.18 197.532 170.146 197.694 170.056 197.826C169.966 197.958 169.827 198.049 169.67 198.078Z" fill="#4D8AF0"/>
<path d="M172.175 198.087L173.486 198.333C173.57 198.349 173.656 198.348 173.74 198.33C173.823 198.312 173.903 198.278 173.973 198.23C174.044 198.181 174.104 198.119 174.151 198.047C174.198 197.975 174.23 197.895 174.246 197.811L176.058 188.076C176.152 187.57 176.042 187.047 175.752 186.622C175.461 186.197 175.014 185.905 174.51 185.811L174.462 185.802C174.378 185.786 174.291 185.787 174.208 185.805C174.124 185.823 174.044 185.857 173.974 185.905C173.903 185.954 173.843 186.016 173.796 186.088C173.75 186.159 173.717 186.24 173.702 186.324L171.654 197.325C171.622 197.496 171.659 197.672 171.757 197.815C171.854 197.958 172.005 198.056 172.175 198.087Z" fill="#4D8AF0"/>
<path opacity="0.1" d="M170.02 176.819C170.597 176.961 171.2 176.961 171.777 176.819V175.564H170.02V176.819Z" fill="black"/>
<path d="M170.898 176.125C173.016 176.125 174.733 174.403 174.733 172.279C174.733 170.155 173.016 168.434 170.898 168.434C168.78 168.434 167.062 170.155 167.062 172.279C167.062 174.403 168.78 176.125 170.898 176.125Z" fill="#333333"/>
<path d="M170.898 176.846C172.928 176.846 174.574 175.196 174.574 173.16C174.574 171.125 172.928 169.475 170.898 169.475C168.868 169.475 167.223 171.125 167.223 173.16C167.223 175.196 168.868 176.846 170.898 176.846Z" fill="#FDB797"/>
<path d="M168.471 168.836C169.178 168.257 170.248 168.154 170.78 167.411C171.002 167.102 171.158 166.668 171.532 166.601L171.543 167.391L172.739 167.268C172.555 167.789 173.008 168.291 173.28 168.772C173.481 169.128 173.591 169.528 173.599 169.936C173.184 170.187 172.669 169.913 172.207 169.768C171.751 169.647 171.28 169.59 170.808 169.599C170.567 169.582 170.325 169.595 170.087 169.638C169.882 169.694 169.683 169.768 169.491 169.858C169.173 169.992 168.168 170.496 167.872 170.171C167.536 169.802 168.198 169.059 168.471 168.836Z" fill="#333333"/>
<path opacity="0.1" d="M168.671 171.312C168.872 171.421 169.093 171.488 169.321 171.509C170.262 171.638 171.221 171.53 172.111 171.194C172.194 171.375 172.316 171.536 172.468 171.665C172.62 171.793 172.798 171.887 172.99 171.939C173.374 172.041 173.771 172.086 174.168 172.071C174.255 172.081 174.344 172.064 174.421 172.023C174.598 171.903 174.513 171.629 174.41 171.442L173.898 170.511C173.762 170.227 173.579 169.969 173.356 169.747C173.046 169.503 172.678 169.344 172.288 169.287C171.379 169.106 170.44 169.137 169.545 169.379C168.588 169.638 167.359 170.516 168.671 171.312Z" fill="black"/>
<path d="M168.671 171.232C168.872 171.341 169.093 171.408 169.321 171.429C170.262 171.557 171.221 171.449 172.111 171.114C172.194 171.295 172.316 171.456 172.468 171.584C172.62 171.713 172.798 171.807 172.99 171.859C173.374 171.961 173.771 172.006 174.168 171.991C174.255 172.001 174.344 171.984 174.421 171.943C174.598 171.823 174.513 171.549 174.41 171.362L173.898 170.431C173.762 170.147 173.579 169.889 173.356 169.667C173.046 169.423 172.678 169.264 172.288 169.207C171.379 169.026 170.44 169.057 169.545 169.299C168.588 169.558 167.359 170.436 168.671 171.232Z" fill="#333333"/>
<path d="M174.532 173.761C174.709 173.761 174.852 173.492 174.852 173.16C174.852 172.828 174.709 172.559 174.532 172.559C174.356 172.559 174.213 172.828 174.213 173.16C174.213 173.492 174.356 173.761 174.532 173.761Z" fill="#FDB797"/>
<path d="M167.261 173.761C167.438 173.761 167.581 173.492 167.581 173.16C167.581 172.828 167.438 172.559 167.261 172.559C167.084 172.559 166.941 172.828 166.941 173.16C166.941 173.492 167.084 173.761 167.261 173.761Z" fill="#FDB797"/>
<path d="M170.033 177.572C170.033 177.572 165.384 176.845 166.343 184.056L166.902 186.123L168.5 186.059C168.5 186.059 167.462 183.655 168.101 182.053C168.74 180.451 170.033 177.572 170.033 177.572Z" fill="#F55F44"/>
<path d="M171.762 177.572C171.762 177.572 176.411 176.845 175.452 184.056L174.893 186.123L173.295 186.059C173.295 186.059 174.333 183.655 173.694 182.053C173.055 180.451 171.762 177.572 171.762 177.572Z" fill="#F55F44"/>
<path d="M167.781 187.261C168.267 187.261 168.66 186.866 168.66 186.379C168.66 185.893 168.267 185.498 167.781 185.498C167.296 185.498 166.902 185.893 166.902 186.379C166.902 186.866 167.296 187.261 167.781 187.261Z" fill="#FDB797"/>
<path d="M174.174 187.261C174.659 187.261 175.053 186.866 175.053 186.379C175.053 185.893 174.659 185.498 174.174 185.498C173.688 185.498 173.295 185.893 173.295 186.379C173.295 186.866 173.688 187.261 174.174 187.261Z" fill="#FDB797"/>
<path d="M168.918 198.396H168.961C169.263 198.396 169.552 198.516 169.765 198.73C169.979 198.944 170.098 199.234 170.098 199.537V199.678H167.781V199.537C167.781 199.387 167.811 199.239 167.868 199.1C167.925 198.962 168.009 198.836 168.114 198.73C168.22 198.624 168.345 198.54 168.483 198.483C168.621 198.426 168.769 198.396 168.918 198.396Z" fill="#333333"/>
<path d="M172.832 198.396H172.875C173.177 198.396 173.466 198.516 173.679 198.73C173.893 198.944 174.012 199.234 174.012 199.537V199.678H171.695V199.537C171.695 199.387 171.725 199.239 171.782 199.1C171.839 198.962 171.923 198.836 172.028 198.73C172.134 198.624 172.259 198.54 172.397 198.483C172.535 198.426 172.683 198.396 172.832 198.396Z" fill="#333333"/>
<path opacity="0.1" d="M168.021 181.412C168.021 181.412 167.701 183.095 168.26 183.816L168.021 181.412Z" fill="black"/>
<path opacity="0.1" d="M173.775 181.412C173.775 181.412 174.094 183.095 173.535 183.816L173.775 181.412Z" fill="black"/>
<path d="M232.452 162.759C233.331 162.759 234.043 162.045 234.043 161.164C234.043 160.283 233.331 159.569 232.452 159.569C231.574 159.569 230.861 160.283 230.861 161.164C230.861 162.045 231.574 162.759 232.452 162.759Z" fill="#F55F44"/>
<path d="M33.962 188.471C33.9732 188.325 33.9843 188.178 33.9843 188.029C33.9857 187.016 33.7197 186.021 33.2133 185.145C32.7068 184.269 31.978 183.543 31.101 183.04C30.2239 182.538 29.2299 182.278 28.22 182.286C27.21 182.294 26.2202 182.57 25.3511 183.085C24.8953 182.23 24.2306 181.504 23.4191 180.976C22.6076 180.448 21.6759 180.135 20.711 180.067C19.7461 179.998 18.7796 180.175 17.9017 180.583C17.0239 180.99 16.2635 181.614 15.6916 182.397C14.5286 182.164 13.3223 182.299 12.2392 182.783C11.1562 183.268 10.2498 184.077 9.64534 185.1C9.04087 186.123 8.76811 187.309 8.86475 188.494C8.96138 189.679 9.42263 190.805 10.1848 191.716C9.77481 192.781 9.69114 193.944 9.94449 195.057C10.1978 196.17 10.7767 197.182 11.6069 197.963C12.4371 198.744 13.4809 199.258 14.6047 199.441C15.7284 199.624 16.881 199.466 17.9147 198.988C18.9274 199.457 20.0555 199.618 21.1586 199.45C22.2618 199.282 23.2915 198.793 24.1198 198.044C24.8826 198.735 25.8182 199.206 26.8269 199.406C27.8356 199.607 28.8795 199.529 29.8476 199.181C31.2534 199.68 32.7981 199.61 34.1529 198.985C35.5077 198.359 36.5658 197.229 37.1019 195.833C37.638 194.438 37.6098 192.888 37.0234 191.513C36.437 190.138 35.3386 189.046 33.962 188.471H33.962Z" fill="#81B34C"/>
<path opacity="0.1" d="M33.962 188.471C33.9732 188.325 33.9843 188.178 33.9843 188.029C33.9857 187.016 33.7197 186.021 33.2133 185.145C32.7068 184.269 31.978 183.543 31.101 183.04C30.2239 182.538 29.2299 182.278 28.22 182.286C27.21 182.294 26.2202 182.57 25.3511 183.085C24.8953 182.23 24.2306 181.504 23.4191 180.976C22.6076 180.448 21.6759 180.135 20.711 180.067C19.7461 179.998 18.7796 180.175 17.9017 180.583C17.0239 180.99 16.2635 181.614 15.6916 182.397C14.5286 182.164 13.3223 182.299 12.2392 182.783C11.1562 183.268 10.2498 184.077 9.64534 185.1C9.04087 186.123 8.76811 187.309 8.86475 188.494C8.96138 189.679 9.42263 190.805 10.1848 191.716C9.77481 192.781 9.69114 193.944 9.94449 195.057C10.1978 196.17 10.7767 197.182 11.6069 197.963C12.4371 198.744 13.4809 199.258 14.6047 199.441C15.7284 199.624 16.881 199.466 17.9147 198.988C18.9274 199.457 20.0555 199.618 21.1586 199.45C22.2618 199.282 23.2915 198.793 24.1198 198.044C24.8826 198.735 25.8182 199.206 26.8269 199.406C27.8356 199.607 28.8795 199.529 29.8476 199.181C31.2534 199.68 32.7981 199.61 34.1529 198.985C35.5077 198.359 36.5658 197.229 37.1019 195.833C37.638 194.438 37.6098 192.888 37.0234 191.513C36.437 190.138 35.3386 189.046 33.962 188.471H33.962Z" fill="black"/>
<path d="M34.5987 188.471C34.6099 188.325 34.621 188.178 34.621 188.029C34.6224 187.016 34.3564 186.021 33.85 185.145C33.3435 184.269 32.6148 183.543 31.7377 183.04C30.8606 182.538 29.8666 182.278 28.8567 182.286C27.8467 182.294 26.8569 182.57 25.9878 183.085C25.532 182.23 24.8673 181.504 24.0558 180.976C23.2443 180.448 22.3126 180.135 21.3477 180.067C20.3828 179.998 19.4163 180.175 18.5384 180.583C17.6606 180.99 16.9002 181.614 16.3283 182.397C15.1653 182.164 13.959 182.299 12.876 182.783C11.7929 183.268 10.8865 184.077 10.2821 185.1C9.67759 186.123 9.40483 187.309 9.50147 188.494C9.5981 189.679 10.0594 190.805 10.8215 191.716C10.4115 192.781 10.3278 193.944 10.5812 195.057C10.8345 196.17 11.4134 197.182 12.2436 197.963C13.0738 198.744 14.1177 199.258 15.2414 199.441C16.3651 199.624 17.5177 199.466 18.5514 198.988C19.5642 199.457 20.6922 199.618 21.7954 199.45C22.8985 199.282 23.9282 198.793 24.7565 198.044C25.5193 198.735 26.4549 199.206 27.4636 199.406C28.4723 199.607 29.5162 199.529 30.4843 199.181C31.8901 199.68 33.4348 199.61 34.7896 198.985C36.1445 198.359 37.2025 197.229 37.7386 195.833C38.2747 194.438 38.2465 192.888 37.6601 191.513C37.0737 190.138 35.9754 189.046 34.5987 188.471H34.5987Z" fill="#81B34C"/>
<path d="M221.217 29.4303C229.322 29.4303 235.893 22.8421 235.893 14.7151C235.893 6.58819 229.322 0 221.217 0C213.112 0 206.541 6.58819 206.541 14.7151C206.541 22.8421 213.112 29.4303 221.217 29.4303Z" fill="#FFFFA5"/>
<g opacity="0.3">
<path opacity="0.3" d="M356.04 19.2716H316.505C313.858 19.2716 311.713 21.4228 311.713 24.0765V24.0766C311.713 26.7302 313.858 28.8815 316.505 28.8815H356.04C358.687 28.8815 360.832 26.7302 360.832 24.0765C360.832 21.4228 358.687 19.2716 356.04 19.2716Z" fill="#E0E0E0"/>
<path opacity="0.3" d="M344.059 28.8816H304.525C301.878 28.8816 299.732 31.0328 299.732 33.6865V33.6865C299.732 36.3402 301.878 38.4915 304.525 38.4915H344.059C346.706 38.4915 348.852 36.3402 348.852 33.6865C348.852 31.0328 346.706 28.8816 344.059 28.8816Z" fill="#E0E0E0"/>
<path opacity="0.3" d="M356.04 38.4913H316.505C313.858 38.4913 311.713 40.6426 311.713 43.2963V43.2963C311.713 45.95 313.858 48.1012 316.505 48.1012H356.04C358.687 48.1012 360.832 45.95 360.832 43.2963C360.832 40.6426 358.687 38.4913 356.04 38.4913Z" fill="#E0E0E0"/>
</g>
<g opacity="0.3">
<path opacity="0.3" d="M129.476 14.4857H89.9406C87.2939 14.4857 85.1484 16.637 85.1484 19.2907V19.2907C85.1484 21.9444 87.2939 24.0956 89.9406 24.0956H129.476C132.122 24.0956 134.268 21.9444 134.268 19.2907C134.268 16.637 132.122 14.4857 129.476 14.4857Z" fill="#E0E0E0"/>
<path opacity="0.3" d="M117.495 24.0957H77.9601C75.3135 24.0957 73.168 26.2469 73.168 28.9006V28.9006C73.168 31.5543 75.3135 33.7056 77.9601 33.7056H117.495C120.142 33.7056 122.287 31.5543 122.287 28.9006C122.287 26.2469 120.142 24.0957 117.495 24.0957Z" fill="#E0E0E0"/>
<path opacity="0.3" d="M129.476 33.7054H89.9406C87.2939 33.7054 85.1484 35.8567 85.1484 38.5104V38.5104C85.1484 41.1641 87.2939 43.3153 89.9406 43.3153H129.476C132.122 43.3153 134.268 41.1641 134.268 38.5104C134.268 35.8567 132.122 33.7054 129.476 33.7054Z" fill="#E0E0E0"/>
</g>
<g opacity="0.3">
<path opacity="0.3" d="M44.1738 49.1737H54.6566C54.6566 49.1737 50.7066 56.1809 44.1738 49.1737Z" fill="#030B44"/>
<path opacity="0.3" d="M44.8066 52.1553L51.6787 44.2181C51.6787 44.2181 54.3666 51.8026 44.8066 52.1553Z" fill="#030B44"/>
</g>
<g opacity="0.3">
<path opacity="0.3" d="M159.158 11.2054H169.641C169.641 11.2054 165.691 18.2126 159.158 11.2054Z" fill="#030B44"/>
<path opacity="0.3" d="M159.791 14.187L166.663 6.24988C166.663 6.24988 169.351 13.8343 159.791 14.187Z" fill="#030B44"/>
</g>
<g opacity="0.3">
<path opacity="0.3" d="M373.756 45.345H385.001C385.001 45.345 380.764 52.8618 373.756 45.345Z" fill="#030B44"/>
<path opacity="0.3" d="M374.434 48.5434L381.806 40.0291C381.806 40.0291 384.689 48.1651 374.434 48.5434Z" fill="#030B44"/>
</g>
<path d="M111.41 186.095L110.642 187.353C110.642 187.353 110.606 187.671 110.861 187.479C111.166 187.074 111.419 186.632 111.613 186.163L111.41 186.095Z" fill="#2F2E41"/>
<path d="M118 174.061L119.931 170.83C120.056 170.617 120.23 170.436 120.439 170.303C120.647 170.17 120.884 170.089 121.13 170.066C121.348 170.034 121.57 170.081 121.756 170.2C121.941 170.319 122.078 170.501 122.14 170.713C122.265 171.081 122.288 171.477 122.207 171.858C122.126 172.238 121.943 172.59 121.679 172.875C121.679 172.875 121.278 172.984 121.299 172.608L121.758 171.804C121.758 171.804 122.14 170.713 121.072 170.633C120.005 170.554 118.479 174.239 118.479 174.239L118 174.061Z" fill="#2F2E41"/>
<path d="M119.175 174.542L117.929 175.622C117.927 176.085 117.519 177.02 116.915 178.153C116.869 178.24 116.822 178.328 116.773 178.417C116.414 179.077 115.997 179.792 115.561 180.515C115.513 180.595 115.465 180.674 115.416 180.754C114.928 181.556 114.42 182.36 113.946 183.096C113.897 183.173 113.848 183.248 113.8 183.324C113.253 184.169 112.76 184.912 112.404 185.443C112.351 185.521 112.301 185.595 112.256 185.664C111.99 186.058 111.832 186.289 111.832 186.289C111.737 186.348 111.627 186.378 111.516 186.374C111.475 186.37 111.436 186.356 111.402 186.333C111.368 186.31 111.34 186.278 111.32 186.242C111.248 186.074 111.222 185.89 111.244 185.709C111.388 184.98 111.63 184.275 111.964 183.612C112.008 183.516 112.054 183.419 112.101 183.321C112.48 182.543 112.95 181.707 113.451 180.878L113.596 180.638C114.083 179.843 114.593 179.06 115.073 178.348C115.123 178.274 115.173 178.202 115.221 178.129C115.693 177.435 116.129 176.817 116.477 176.333C116.529 176.26 116.579 176.191 116.627 176.125C117.024 175.575 117.273 175.245 117.273 175.245L117.557 173.564L118.1 173.892L118.518 174.145L119.175 174.542Z" fill="#3F3D56"/>
<path d="M112.103 183.321L112.405 185.443C112.352 185.521 112.303 185.595 112.257 185.664L111.965 183.612C112.009 183.516 112.055 183.419 112.103 183.321Z" fill="#B6B7BC"/>
<path d="M113.597 180.638L113.947 183.096C113.897 183.173 113.848 183.248 113.8 183.324L113.451 180.878L113.597 180.638Z" fill="#B6B7BC"/>
<path d="M115.222 178.13L115.562 180.515C115.514 180.595 115.466 180.674 115.417 180.754L115.074 178.348C115.124 178.275 115.174 178.202 115.222 178.13Z" fill="#B6B7BC"/>
<path d="M116.626 176.125L116.915 178.153C116.869 178.24 116.822 178.328 116.773 178.417L116.477 176.333C116.529 176.26 116.578 176.191 116.626 176.125Z" fill="#B6B7BC"/>
<path d="M126.883 159.756C128.149 159.756 129.175 158.728 129.175 157.459C129.175 156.19 128.149 155.161 126.883 155.161C125.618 155.161 124.592 156.19 124.592 157.459C124.592 158.728 125.618 159.756 126.883 159.756Z" fill="#2F2E41"/>
<path d="M125.448 159.007C125.448 159.007 125.645 161.28 125.448 161.873C125.25 162.467 128.011 161.577 128.011 161.577C128.011 161.577 126.926 159.007 127.124 158.759C127.321 158.512 125.448 159.007 125.448 159.007Z" fill="#FFB8B8"/>
<path d="M125.373 175.639L125.225 182.905C125.188 183.392 125.309 183.878 125.57 184.289C126.014 185.031 127.986 190.616 127.986 190.616L129.613 189.726L129.465 187.502C129.465 187.502 129.169 184.438 128.183 183.301L129.613 176.331L125.373 175.639Z" fill="#FFB8B8"/>
<path opacity="0.1" d="M125.373 175.639L125.225 182.905C125.188 183.392 125.309 183.878 125.57 184.289C126.014 185.031 127.986 190.616 127.986 190.616L129.613 189.726L129.465 187.502C129.465 187.502 129.169 184.438 128.183 183.301L129.613 176.331L125.373 175.639Z" fill="black"/>
<path d="M129.81 188.688C129.81 188.688 125.718 189.529 126.409 190.863C127.099 192.198 128.38 194.966 128.38 194.966C128.38 194.966 128.725 196.696 128.085 197.042C127.444 197.388 126.113 199.464 127.394 199.365C128.676 199.266 129.909 197.833 129.909 197.833L130.993 196.449L131.19 196.795L133.162 195.163C133.162 195.163 133.902 193.582 131.19 192.791L129.81 188.688Z" fill="#2F2E41"/>
<path opacity="0.1" d="M129.81 188.688C129.81 188.688 125.718 189.529 126.409 190.863C127.099 192.198 128.38 194.966 128.38 194.966C128.38 194.966 128.725 196.696 128.085 197.042C127.444 197.388 126.113 199.464 127.394 199.365C128.676 199.266 129.909 197.833 129.909 197.833L130.993 196.449L131.19 196.795L133.162 195.163C133.162 195.163 133.902 193.582 131.19 192.791L129.81 188.688Z" fill="black"/>
<path d="M124.533 175.837L124.386 183.103C124.348 183.59 124.469 184.075 124.731 184.487C125.174 185.228 127.146 190.814 127.146 190.814L128.773 189.924L128.625 187.7C128.625 187.7 128.329 184.635 127.343 183.498L128.773 176.529L124.533 175.837Z" fill="#FFB8B8"/>
<path d="M128.972 188.886C128.972 188.886 124.88 189.726 125.571 191.061C126.261 192.395 127.542 195.163 127.542 195.163C127.542 195.163 127.888 196.893 127.247 197.239C126.606 197.585 125.275 199.661 126.557 199.563C127.838 199.464 129.071 198.03 129.071 198.03L130.155 196.646L130.352 196.992L132.324 195.361C132.324 195.361 133.064 193.779 130.352 192.989L128.972 188.886Z" fill="#2F2E41"/>
<path d="M126.137 160.242C127.172 160.242 128.01 159.401 128.01 158.364C128.01 157.327 127.172 156.486 126.137 156.486C125.102 156.486 124.264 157.327 124.264 158.364C124.264 159.401 125.102 160.242 126.137 160.242Z" fill="#FFB8B8"/>
<path d="M125.916 161.206C125.916 161.206 127.986 160.069 128.923 160.069C129.86 160.069 130.895 159.624 130.994 160.168C131.092 160.712 132.078 162.145 131.092 162.046C130.106 161.947 129.317 162.096 128.824 162.046C128.332 161.997 125.916 161.206 125.916 161.206Z" fill="#575A89"/>
<path d="M124.732 174.156C124.732 174.156 123.844 176.381 124.436 176.479C125.793 176.647 127.16 176.73 128.527 176.727C128.675 176.628 129.168 174.057 124.732 174.156Z" fill="#B6B7BC"/>
<path d="M130.796 175.145C129.76 176.134 130.352 176.578 129.958 177.32C129.563 178.061 126.655 177.468 125.472 175.886C124.289 174.305 123.993 174.898 122.711 174.7C121.429 174.502 120.295 173.563 121.38 173.02C121.945 172.694 122.394 172.2 122.666 171.606C122.906 171.128 123.057 170.61 123.11 170.077C123.148 169.706 123.129 169.332 123.056 168.966C122.859 168.006 123.193 166.109 123.736 164.421C124.025 163.396 124.482 162.427 125.089 161.554C125.118 161.518 125.147 161.485 125.176 161.453C126.359 160.168 129.021 161.107 129.021 161.107C129.021 161.107 130.993 162.738 130.303 164.814C129.726 166.493 129.797 168.326 130.5 169.955C131.042 171.191 131.831 174.156 130.796 175.145Z" fill="#575A89"/>
<path d="M123.107 171.092L122.564 171.438C122.564 171.438 120.346 170.795 120.395 171.438C120.445 172.08 122.712 172.278 122.712 172.278L123.501 171.685L123.107 171.092Z" fill="#FFB8B8"/>
<path opacity="0.1" d="M125.768 161.799C125.768 161.799 124.339 161.222 124.363 163.488C124.435 165.169 124.674 166.839 125.078 168.472L123.061 171.398L123.697 172.377L127.789 169.016V164.37C127.789 164.37 127.592 161.997 125.768 161.799Z" fill="black"/>
<path opacity="0.1" d="M127.098 164.123V168.769L123.327 171.858L123.08 171.314C123.311 170.855 123.057 170.62 123.11 170.077L124.386 168.225C124.082 166.974 123.865 165.702 123.736 164.421C124.024 163.396 124.481 162.427 125.088 161.554C126.902 161.76 127.098 164.123 127.098 164.123Z" fill="black"/>
<path d="M125.57 161.552C125.57 161.552 124.142 160.974 124.166 163.24C124.238 164.922 124.477 166.591 124.88 168.225L122.863 171.151L123.5 172.13L127.592 168.769V164.122C127.592 164.122 127.394 161.75 125.57 161.552Z" fill="#575A89"/>
<path d="M129.366 156.731C130.631 156.731 131.657 155.703 131.657 154.434C131.657 153.165 130.631 152.136 129.366 152.136C128.1 152.136 127.074 153.165 127.074 154.434C127.074 155.703 128.1 156.731 129.366 156.731Z" fill="#2F2E41"/>
<path d="M131.343 156.336C131.047 156.551 130.703 156.691 130.341 156.746C129.979 156.8 129.61 156.767 129.263 156.649C128.917 156.531 128.604 156.331 128.35 156.067C128.096 155.803 127.909 155.481 127.805 155.129C127.844 155.445 127.948 155.748 128.111 156.021C128.273 156.293 128.49 156.529 128.748 156.714C129.006 156.898 129.299 157.027 129.61 157.092C129.92 157.157 130.24 157.157 130.55 157.091C130.86 157.026 131.153 156.897 131.411 156.712C131.668 156.528 131.885 156.291 132.047 156.018C132.209 155.746 132.313 155.442 132.352 155.127C132.391 154.812 132.365 154.492 132.275 154.187C132.326 154.596 132.267 155.012 132.103 155.39C131.939 155.768 131.676 156.094 131.343 156.336Z" fill="#2F2E41"/>
<path d="M127.495 159.526C128.423 159.526 129.175 158.772 129.175 157.841C129.175 156.911 128.423 156.156 127.495 156.156C126.567 156.156 125.814 156.911 125.814 157.841C125.814 158.772 126.567 159.526 127.495 159.526Z" fill="#2F2E41"/>
<path d="M126.081 158.378C126.904 158.378 127.571 157.855 127.571 157.21C127.571 156.565 126.904 156.042 126.081 156.042C125.259 156.042 124.592 156.565 124.592 157.21C124.592 157.855 125.259 158.378 126.081 158.378Z" fill="#2F2E41"/>
<path d="M125.683 158.908C125.839 158.908 125.966 158.683 125.966 158.406C125.966 158.129 125.839 157.905 125.683 157.905C125.527 157.905 125.4 158.129 125.4 158.406C125.4 158.683 125.527 158.908 125.683 158.908Z" fill="#FFB8B8"/>
</g>
<defs>
<linearGradient id="paint0_linear" x1="170.909" y1="200.329" x2="170.909" y2="165.95" gradientUnits="userSpaceOnUse">
<stop stop-color="#808080" stop-opacity="0.25"/>
<stop offset="0.53514" stop-color="#808080" stop-opacity="0.12"/>
<stop offset="1" stop-color="#808080" stop-opacity="0.1"/>
</linearGradient>
<clipPath id="clip0">
<rect width="385" height="204" fill="white"/>
</clipPath>
</defs>
</svg>
