<svg width="84" height="84" viewBox="0 0 84 84" fill="none" xmlns="http://www.w3.org/2000/svg">
<g filter="url(#filter0_f)">
<circle cx="42" cy="42" r="32" fill="#276FCF" fill-opacity="0.75"/>
</g>
<path d="M45.9831 32.5237L44.9852 32.4592C44.995 32.3076 45 32.1544 45 32C45 31.8456 44.995 31.6924 44.9852 31.5408L45.9831 31.4763C45.9943 31.6494 46 31.824 46 32C46 32.176 45.9943 32.3506 45.9831 32.5237Z" fill="white"/>
<path d="M45.8477 30.4387L44.8667 30.6328C44.807 30.3306 44.7278 30.0356 44.6305 29.7489L45.5774 29.4275C45.6887 29.7556 45.7794 30.0931 45.8477 30.4387Z" fill="white"/>
<path d="M45.1766 28.4609L44.2801 28.9039C44.1443 28.6291 43.991 28.3645 43.8216 28.1114L44.6525 27.5551C44.8461 27.8443 45.0214 28.1468 45.1766 28.4609Z" fill="white"/>
<path d="M44.0148 26.7252L43.2632 27.3848C43.0615 27.155 42.845 26.9385 42.6152 26.7368L43.2748 25.9852C43.5372 26.2155 43.7845 26.4628 44.0148 26.7252Z" fill="white"/>
<path d="M42.4449 25.3475L41.8886 26.1784C41.6355 26.009 41.3708 25.8557 41.0961 25.7199L41.5391 24.8234C41.8532 24.9786 42.1557 25.1539 42.4449 25.3475Z" fill="white"/>
<path d="M40.5725 24.4226L40.2511 25.3695C39.9644 25.2722 39.6694 25.193 39.3672 25.1333L39.5613 24.1523C39.9069 24.2206 40.2444 24.3113 40.5725 24.4226Z" fill="white"/>
<path d="M38.5237 24.0169L38.4592 25.0148C38.3076 25.005 38.1544 25 38 25C37.8456 25 37.6924 25.005 37.5408 25.0148L37.4763 24.0169C37.6494 24.0057 37.824 24 38 24C38.176 24 38.3506 24.0057 38.5237 24.0169Z" fill="white"/>
<path d="M36.4387 24.1523L36.6328 25.1333C36.3306 25.193 36.0356 25.2722 35.7489 25.3695L35.4275 24.4226C35.7556 24.3113 36.0931 24.2206 36.4387 24.1523Z" fill="white"/>
<path d="M34.4609 24.8234L34.9039 25.7199C34.6291 25.8557 34.3645 26.009 34.1114 26.1784L33.5551 25.3475C33.8443 25.1539 34.1468 24.9786 34.4609 24.8234Z" fill="white"/>
<path d="M32.7252 25.9852L33.3848 26.7368C33.155 26.9385 32.9385 27.155 32.7368 27.3848L31.9852 26.7252C32.2155 26.4628 32.4628 26.2155 32.7252 25.9852Z" fill="white"/>
<path d="M31.3475 27.5551L32.1784 28.1114C32.009 28.3645 31.8557 28.6292 31.7199 28.9039L30.8234 28.4609C30.9786 28.1468 31.1539 27.8443 31.3475 27.5551Z" fill="white"/>
<path d="M30.4226 29.4275L31.3695 29.7489C31.2722 30.0356 31.193 30.3306 31.1333 30.6328L30.1523 30.4387C30.2206 30.0931 30.3113 29.7556 30.4226 29.4275Z" fill="white"/>
<path d="M30.0169 31.4763C30.0057 31.6494 30 31.824 30 32C30 32.176 30.0057 32.3506 30.0169 32.5237L31.0148 32.4592C31.005 32.3076 31 32.1544 31 32C31 31.8456 31.005 31.6924 31.0148 31.5408L30.0169 31.4763Z" fill="white"/>
<path d="M30.1523 33.5613L31.1333 33.3672C31.193 33.6694 31.2722 33.9644 31.3695 34.2511L30.4226 34.5725C30.3113 34.2444 30.2206 33.9069 30.1523 33.5613Z" fill="white"/>
<path d="M30.8234 35.5391L31.7199 35.0961C31.8557 35.3709 32.009 35.6355 32.1784 35.8886L31.3475 36.4449C31.1539 36.1557 30.9786 35.8532 30.8234 35.5391Z" fill="white"/>
<path d="M33.5551 38.6525L34.1114 37.8216C34.3645 37.991 34.6292 38.1443 34.9039 38.2801L34.4609 39.1766C34.1468 39.0214 33.8443 38.8461 33.5551 38.6525Z" fill="white"/>
<path d="M35.4275 39.5774L35.7489 38.6305C36.0356 38.7278 36.3306 38.807 36.6328 38.8667L36.4387 39.8477C36.0931 39.7794 35.7556 39.6887 35.4275 39.5774Z" fill="white"/>
<path d="M37.4763 39.9831L37.5408 38.9852C37.6924 38.995 37.8456 39 38 39C38.1544 39 38.3076 38.995 38.4592 38.9852L38.47 39.1518C38.6237 39.0556 38.8053 39 39 39C39.5523 39 40 39.4477 40 40C40 40.5523 39.5523 41 39 41C38.4477 41 38 40.5523 38 40C37.824 40 37.6494 39.9943 37.4763 39.9831Z" fill="white"/>
<path d="M35 44.5C35 44.2239 35.2239 44 35.5 44H42.5C42.7761 44 43 44.2239 43 44.5C43 44.7761 42.7761 45 42.5 45H35.5C35.2239 45 35 44.7761 35 44.5Z" fill="white"/>
<path d="M35.5 47C35.2239 47 35 47.2239 35 47.5C35 47.7761 35.2239 48 35.5 48H42.5C42.7761 48 43 47.7761 43 47.5C43 47.2239 42.7761 47 42.5 47H35.5Z" fill="white"/>
<path d="M35 50.5C35 50.2239 35.2239 50 35.5 50H42.5C42.7761 50 43 50.2239 43 50.5C43 50.7761 42.7761 51 42.5 51H35.5C35.2239 51 35 50.7761 35 50.5Z" fill="white"/>
<path d="M35.5 53C35.2239 53 35 53.2239 35 53.5C35 53.7761 35.2239 54 35.5 54H42.5C42.7761 54 43 53.7761 43 53.5C43 53.2239 42.7761 53 42.5 53H35.5Z" fill="white"/>
<path fill-rule="evenodd" clip-rule="evenodd" d="M31.9852 37.2748L32.7368 36.6152C32.7526 36.6332 32.7685 36.6512 32.7845 36.6691C33.4188 36.2464 34.1806 36 35 36H36.8145C37.1758 35.7541 37.584 35.5637 38.0301 35.4442L44.8101 33.6275C44.8306 33.5413 44.8495 33.4546 44.8667 33.3672L45.3929 33.4713L45.7575 33.3736C47.8914 32.8019 50.0847 34.0682 50.6565 36.202L54.7976 51.6569C55.3694 53.7907 54.103 55.9841 51.9692 56.5558L46.4435 58.0364C45.7469 59.2119 44.4655 60 43 60H35C32.7909 60 31 58.2091 31 56V40C31 38.9705 31.3889 38.0319 32.0278 37.323L31.9852 37.2748ZM46.9033 56.8779L51.7104 55.5899C53.3108 55.1611 54.2605 53.5161 53.8317 51.9157L49.6906 36.4609C49.2617 34.8605 47.6167 33.9107 46.0163 34.3395L39.8194 36H43C45.2091 36 47 37.7909 47 40V56C47 56.3016 46.9666 56.5954 46.9033 56.8779ZM35 37H43C44.6569 37 46 38.3431 46 40V56C46 57.6569 44.6569 59 43 59H35C33.3431 59 32 57.6569 32 56V40C32 38.3431 33.3431 37 35 37Z" fill="white"/>
<defs>
<filter id="filter0_f" x="0" y="0" width="84" height="84" filterUnits="userSpaceOnUse" color-interpolation-filters="sRGB">
<feFlood flood-opacity="0" result="BackgroundImageFix"/>
<feBlend mode="normal" in="SourceGraphic" in2="BackgroundImageFix" result="shape"/>
<feGaussianBlur stdDeviation="5" result="effect1_foregroundBlur"/>
</filter>
</defs>
</svg>
