<svg width="84" height="84" viewBox="0 0 84 84" fill="none" xmlns="http://www.w3.org/2000/svg">
<g filter="url(#filter0_f)">
<circle cx="42" cy="42" r="32" fill="#EEA98B"/>
</g>
<path d="M33.1785 34C32.9221 34 32.7143 34.199 32.7143 34.4444C32.7143 34.6899 32.9221 34.8889 33.1785 34.8889H47.1071C47.3635 34.8889 47.5714 34.6899 47.5714 34.4444C47.5714 34.199 47.3635 34 47.1071 34H33.1785Z" fill="white"/>
<path d="M32.7142 38C32.7142 37.7545 32.9221 37.5556 33.1785 37.5556H47.1071C47.3635 37.5556 47.5714 37.7545 47.5714 38C47.5714 38.2455 47.3635 38.4444 47.1071 38.4444H33.1785C32.9221 38.4444 32.7142 38.2455 32.7142 38Z" fill="white"/>
<path d="M33.1785 41.1111C32.9221 41.1111 32.7142 41.3101 32.7142 41.5556C32.7142 41.801 32.9221 42 33.1785 42H47.1071C47.3635 42 47.5714 41.801 47.5714 41.5556C47.5714 41.3101 47.3635 41.1111 47.1071 41.1111H33.1785Z" fill="white"/>
<path d="M32.7142 45.1111C32.7142 44.8657 32.9221 44.6667 33.1785 44.6667H47.1071C47.3635 44.6667 47.5714 44.8657 47.5714 45.1111C47.5714 45.3566 47.3635 45.5556 47.1071 45.5556H33.1785C32.9221 45.5556 32.7142 45.3566 32.7142 45.1111Z" fill="white"/>
<path d="M33.1785 48.2222C32.9221 48.2222 32.7142 48.4212 32.7142 48.6667C32.7142 48.9121 32.9221 49.1111 33.1785 49.1111H38.7499C39.0064 49.1111 39.2142 48.9121 39.2142 48.6667C39.2142 48.4212 39.0064 48.2222 38.7499 48.2222H33.1785Z" fill="white"/>
<path d="M32.7142 52.2222C32.7142 51.9768 32.9221 51.7778 33.1785 51.7778H39.6785C39.9349 51.7778 40.1428 51.9768 40.1428 52.2222C40.1428 52.4677 39.9349 52.6667 39.6785 52.6667H33.1785C32.9221 52.6667 32.7142 52.4677 32.7142 52.2222Z" fill="white"/>
<path d="M44.7927 54.4444L45.5188 53.6247L43.5957 51.7837L45.0212 49.9642L43.8373 48.4531L44.4831 47.9894C43.6332 47.3074 42.4582 47.0324 41.7063 47.8106C40.8579 48.6887 40.86 50.1101 41.711 50.9855L44.7927 54.4444Z" fill="white"/>
<path d="M47.865 50.9758L46.1214 52.9444L44.8217 51.7003L46.1819 49.9642L44.8274 48.2354C45.678 47.3803 47.0208 46.9373 47.8603 47.8009C48.7113 48.6763 48.7134 50.0977 47.865 50.9758Z" fill="white"/>
<path fill-rule="evenodd" clip-rule="evenodd" d="M53.1428 54.4444H54.0713C54.5842 54.4444 54.9999 54.0465 54.9999 53.5556L55 26.8889C55 26.398 54.5843 26 54.0714 26L33.6429 26C33.13 26 32.7143 26.398 32.7143 26.8889L32.7143 27.7778H31.7857C31.2729 27.7778 30.8571 28.1757 30.8571 28.6667L30.8571 29.5556H29.9286C29.4157 29.5556 29 29.9535 29 30.4444L28.9999 57.1111C28.9999 57.602 29.4156 58 29.9285 58H50.357C50.8699 58 51.2856 57.602 51.2856 57.1111L51.2856 56.2222H52.2142C52.727 56.2222 53.1428 55.8242 53.1428 55.3333L53.1428 54.4444ZM54.0714 26.8889L33.6429 26.8889L33.6429 27.7778L52.2143 27.7778C52.7271 27.7778 53.1429 28.1757 53.1429 28.6667L53.1428 53.5556H54.0713L54.0714 26.8889ZM50.3571 29.5556H31.7857L31.7857 28.6667L52.2143 28.6667L52.2142 55.3333H51.2856L51.2857 30.4444C51.2857 29.9535 50.87 29.5556 50.3571 29.5556ZM50.357 57.1111H29.9285L29.9286 30.4444H50.3571L50.357 57.1111Z" fill="white"/>
<defs>
<filter id="filter0_f" x="0" y="0" width="84" height="84" filterUnits="userSpaceOnUse" color-interpolation-filters="sRGB">
<feFlood flood-opacity="0" result="BackgroundImageFix"/>
<feBlend mode="normal" in="SourceGraphic" in2="BackgroundImageFix" result="shape"/>
<feGaussianBlur stdDeviation="5" result="effect1_foregroundBlur"/>
</filter>
</defs>
</svg>
