<svg width="84" height="84" viewBox="0 0 84 84" fill="none" xmlns="http://www.w3.org/2000/svg">
<g filter="url(#filter0_f)">
<circle cx="42" cy="42" r="32" fill="#988CDF" fill-opacity="0.75"/>
</g>
<path d="M29.35 43.3333H35.4736C35.3386 46.2286 34.7642 49.07 33.7584 51.7973L32.1317 56.2107C31.8765 56.9027 32.2376 57.668 32.9383 57.9193C33.0909 57.974 33.2461 58 33.4 58C33.9515 58 34.4685 57.664 34.6683 57.1227L36.2951 52.7093C37.4088 49.6886 38.0393 46.5406 38.1763 43.3333H44.8224C44.9594 46.54 45.5898 49.688 46.7043 52.7093L48.331 57.1227C48.5308 57.6647 49.0492 58 49.6 58C49.7539 58 49.9092 57.974 50.0624 57.9193C50.7624 57.6673 51.1235 56.902 50.8683 56.2107L49.2416 51.7973C48.2358 49.0693 47.6621 46.228 47.5271 43.3333H53.65C54.3952 43.3333 55 42.736 55 42C55 41.264 54.3952 40.6666 53.65 40.6666H47.5264C47.6614 37.772 48.2358 34.9306 49.2409 32.2026L50.8676 27.7893C51.1228 27.0973 50.7617 26.3319 50.0617 26.0806C49.3604 25.8299 48.5855 26.1853 48.3317 26.8773L46.7049 31.2906C45.5905 34.3119 44.9601 37.46 44.823 40.6666H38.177C38.04 37.4593 37.4095 34.3106 36.2958 31.2906L34.669 26.8773C34.4138 26.1853 33.6396 25.8293 32.939 26.0806C32.2383 26.3326 31.8772 27.0979 32.1323 27.7893L33.7591 32.2033C34.7649 34.9306 35.3393 37.7713 35.4743 40.6666H29.35C28.6048 40.6666 28 41.264 28 42C28 42.736 28.6048 43.3333 29.35 43.3333Z" fill="white"/>
<defs>
<filter id="filter0_f" x="0" y="0" width="84" height="84" filterUnits="userSpaceOnUse" color-interpolation-filters="sRGB">
<feFlood flood-opacity="0" result="BackgroundImageFix"/>
<feBlend mode="normal" in="SourceGraphic" in2="BackgroundImageFix" result="shape"/>
<feGaussianBlur stdDeviation="5" result="effect1_foregroundBlur"/>
</filter>
</defs>
</svg>
