<svg width="84" height="84" viewBox="0 0 84 84" fill="none" xmlns="http://www.w3.org/2000/svg">
<g filter="url(#filter0_f)">
<circle cx="42" cy="42" r="32" fill="#E36D38" fill-opacity="0.75"/>
</g>
<path d="M35 44C33.8954 44 33 43.1046 33 42C33 40.8954 33.8954 40 35 40C36.1046 40 37 40.8954 37 42C37 43.1046 36.1046 44 35 44Z" fill="white"/>
<path fill-rule="evenodd" clip-rule="evenodd" d="M30 38C29.4477 38 29 38.4477 29 39V49C29 49.5523 29.4477 50 30 50H40C40.5523 50 41 49.5523 41 49V39C41 38.4477 40.5523 38 40 38H30ZM40 39H30L30 49H32V47C32 45.3431 33.3431 44 35 44C36.6569 44 38 45.3431 38 47V49H40V39Z" fill="white"/>
<path d="M43.5 43C43.2239 43 43 43.2239 43 43.5C43 43.7761 43.2239 44 43.5 44H46.5C46.7761 44 47 43.7761 47 43.5C47 43.2239 46.7761 43 46.5 43H43.5Z" fill="white"/>
<path d="M43 39.5C43 39.2239 43.2239 39 43.5 39H54.5C54.7761 39 55 39.2239 55 39.5C55 39.7761 54.7761 40 54.5 40H43.5C43.2239 40 43 39.7761 43 39.5Z" fill="white"/>
<path d="M48.5 43C48.2239 43 48 43.2239 48 43.5C48 43.7761 48.2239 44 48.5 44H54.5C54.7761 44 55 43.7761 55 43.5C55 43.2239 54.7761 43 54.5 43H48.5Z" fill="white"/>
<path d="M43 45.5C43 45.2239 43.2239 45 43.5 45H49.5C49.7761 45 50 45.2239 50 45.5C50 45.7761 49.7761 46 49.5 46H43.5C43.2239 46 43 45.7761 43 45.5Z" fill="white"/>
<path d="M43.5 47C43.2239 47 43 47.2239 43 47.5C43 47.7761 43.2239 48 43.5 48H48.5C48.7761 48 49 47.7761 49 47.5C49 47.2239 48.7761 47 48.5 47H43.5Z" fill="white"/>
<path d="M50 47.5C50 47.2239 50.2239 47 50.5 47H54.5C54.7761 47 55 47.2239 55 47.5C55 47.7761 54.7761 48 54.5 48H50.5C50.2239 48 50 47.7761 50 47.5Z" fill="white"/>
<path d="M51.5 45C51.2239 45 51 45.2239 51 45.5C51 45.7761 51.2239 46 51.5 46H54.5C54.7761 46 55 45.7761 55 45.5C55 45.2239 54.7761 45 54.5 45H51.5Z" fill="white"/>
<path fill-rule="evenodd" clip-rule="evenodd" d="M26 32C26 30.8954 26.8954 30 28 30H56C57.1046 30 58 30.8954 58 32V52C58 53.1046 57.1046 54 56 54H28C26.8954 54 26 53.1046 26 52V32ZM28 31H56C56.5523 31 57 31.4477 57 32V34H27V32C27 31.4477 27.4477 31 28 31ZM27 35H57V52C57 52.5523 56.5523 53 56 53H28C27.4477 53 27 52.5523 27 52V35Z" fill="white"/>
<defs>
<filter id="filter0_f" x="0" y="0" width="84" height="84" filterUnits="userSpaceOnUse" color-interpolation-filters="sRGB">
<feFlood flood-opacity="0" result="BackgroundImageFix"/>
<feBlend mode="normal" in="SourceGraphic" in2="BackgroundImageFix" result="shape"/>
<feGaussianBlur stdDeviation="5" result="effect1_foregroundBlur"/>
</filter>
</defs>
</svg>
