<svg width="84" height="84" viewBox="0 0 84 84" fill="none" xmlns="http://www.w3.org/2000/svg">
<g filter="url(#filter0_f)">
<circle cx="42" cy="42" r="32" fill="#F8DA8A"/>
</g>
<path d="M53.256 45.956L53.4803 45.8109V36.0937L59.3726 34.0083V52.8549C58.6975 53.1002 58.2138 53.7629 58.2138 54.542V58H61.6882V54.542C61.6882 53.6875 61.1062 52.973 60.3281 52.7956V33.6701L62 33.0784L42 26L22 33.0784L30.52 36.0938V45.8109L30.7435 45.9555M53.256 45.956C53.2562 45.9559 53.2568 45.9555 53.0025 45.5391L53.256 45.956ZM53.256 45.956L53.2514 45.959L53.24 45.9662L53.2301 45.9724L53.1995 45.9913C53.1646 46.0127 53.1141 46.043 53.0482 46.081C52.9164 46.157 52.7231 46.2637 52.4704 46.3909C51.9652 46.6452 51.2224 46.9814 50.2603 47.3167C48.336 47.9872 45.5335 48.6543 42.0001 48.6543C38.4667 48.6543 35.6643 47.9872 33.7399 47.3167C32.7778 46.9814 32.0351 46.6452 31.5298 46.3909C31.2771 46.2637 31.0838 46.157 30.952 46.081C30.8861 46.043 30.8356 46.0127 30.8007 45.9913C30.7833 45.9807 30.7698 45.9722 30.7603 45.9662L30.7489 45.959L30.7454 45.9568L30.7435 45.9555M30.7435 45.9555L30.9977 45.5391C30.7435 45.9555 30.7433 45.9554 30.7435 45.9555ZM59.3726 54.0004V54.065H60.3281V53.8368C60.5693 53.9738 60.7327 54.2383 60.7327 54.542V57.0163H59.1692V54.542C59.1692 54.3334 59.2463 54.1434 59.3726 54.0004ZM52.5248 36.4319L42 40.1568L31.4754 36.432V45.2549C31.5903 45.32 31.7488 45.4061 31.9495 45.5071C32.4214 45.7446 33.1263 46.0643 34.0462 46.3848C35.8859 47.0259 38.5846 47.6705 42.0001 47.6705C45.4156 47.6705 48.1144 47.0259 49.954 46.3848C50.8739 46.0643 51.5788 45.7446 52.0508 45.5071C52.2514 45.4061 52.4099 45.32 52.5248 45.2549V36.4319ZM42 39.1166L24.9392 33.0784L42 27.0402L59.0608 33.0784L42 39.1166Z" fill="white"/>
<path d="M53.256 45.956L53.4803 45.8109V36.0937L59.3726 34.0083V52.8549C58.6975 53.1002 58.2138 53.7629 58.2138 54.542V58H61.6882V54.542C61.6882 53.6875 61.1062 52.973 60.3281 52.7956V33.6701L62 33.0784L42 26L22 33.0784L30.52 36.0938V45.8109L30.7435 45.9555M53.256 45.956C53.2562 45.9559 53.2568 45.9555 53.0025 45.5391L53.256 45.956ZM53.256 45.956L53.2514 45.959L53.24 45.9662L53.2301 45.9724L53.1995 45.9913C53.1646 46.0127 53.1141 46.043 53.0482 46.081C52.9164 46.157 52.7231 46.2637 52.4704 46.3909C51.9652 46.6452 51.2224 46.9814 50.2603 47.3167C48.336 47.9872 45.5335 48.6543 42.0001 48.6543C38.4667 48.6543 35.6643 47.9872 33.7399 47.3167C32.7778 46.9814 32.0351 46.6452 31.5298 46.3909C31.2771 46.2637 31.0838 46.157 30.952 46.081C30.8861 46.043 30.8356 46.0127 30.8007 45.9913C30.7833 45.9807 30.7698 45.9722 30.7603 45.9662L30.7489 45.959L30.7454 45.9568L30.7435 45.9555M30.7435 45.9555L30.9977 45.5391C30.7435 45.9555 30.7433 45.9554 30.7435 45.9555ZM59.3726 54.0004V54.065H60.3281V53.8368C60.5693 53.9738 60.7327 54.2383 60.7327 54.542V57.0163H59.1692V54.542C59.1692 54.3334 59.2463 54.1434 59.3726 54.0004ZM52.5248 36.4319L42 40.1568L31.4754 36.432V45.2549C31.5903 45.32 31.7488 45.4061 31.9495 45.5071C32.4214 45.7446 33.1263 46.0643 34.0462 46.3848C35.8859 47.0259 38.5846 47.6705 42.0001 47.6705C45.4156 47.6705 48.1144 47.0259 49.954 46.3848C50.8739 46.0643 51.5788 45.7446 52.0508 45.5071C52.2514 45.4061 52.4099 45.32 52.5248 45.2549V36.4319ZM42 39.1166L24.9392 33.0784L42 27.0402L59.0608 33.0784L42 39.1166Z" stroke="white"/>
<defs>
<filter id="filter0_f" x="0" y="0" width="84" height="84" filterUnits="userSpaceOnUse" color-interpolation-filters="sRGB">
<feFlood flood-opacity="0" result="BackgroundImageFix"/>
<feBlend mode="normal" in="SourceGraphic" in2="BackgroundImageFix" result="shape"/>
<feGaussianBlur stdDeviation="5" result="effect1_foregroundBlur"/>
</filter>
</defs>
</svg>
