<svg width="84" height="72" viewBox="0 0 84 72" fill="none" xmlns="http://www.w3.org/2000/svg">
<path d="M21.4146 0H63.0588L83.8809 35.9998L63.0588 72H21.4146L0.592453 35.9998L21.4146 0Z" fill="#E6E6E6"/>
<path d="M60.724 67.9592H23.7541L5.26911 36L23.7541 4.04077H60.724L79.209 36L60.724 67.9592Z" fill="white"/>
<path d="M42.315 23.745C43.1986 22.82 44.2586 22.0808 45.4326 21.5707C46.6066 21.0606 47.871 20.79 49.1513 20.7748C50.4316 20.7597 51.702 21.0002 52.8878 21.4823C54.0736 21.9643 55.1509 22.6782 56.0563 23.582C56.9616 24.4857 57.6768 25.5611 58.1598 26.7447C58.6427 27.9284 58.8837 29.1965 58.8685 30.4745C58.8533 31.7525 58.5822 33.0146 58.0712 34.1865C57.5602 35.3584 56.8196 36.4164 55.893 37.2984L41.9885 51.1779L28.4105 37.6244C26.6384 35.7694 25.6635 33.2961 25.694 30.733C25.7245 28.1699 26.7581 25.7204 28.5738 23.908C30.3896 22.0955 32.8435 21.0638 35.4112 21.0333C37.9789 21.0029 40.4566 21.9761 42.315 23.745Z" fill="#81B34C"/>
</svg>
