<svg width="107" height="72" viewBox="0 0 107 72" fill="none" xmlns="http://www.w3.org/2000/svg">
<path d="M102.852 61.3211L105.285 60.6211C105.717 59.5052 106.085 58.3658 106.388 57.2085L105.246 57.1669L106.492 56.8085C106.852 55.3737 107 54.4007 107 54.4007C107 54.4007 102.065 55.8677 98.3491 58.7307L97.8907 61.9417L97.4521 59.4728C97.0477 59.831 96.6662 60.2143 96.31 60.6203C92.7324 64.7261 91.1756 69.2208 92.8327 70.6595C94.4898 72.0982 98.7334 69.9362 102.311 65.8304C103.418 64.4972 104.314 63.0024 104.967 61.3982L102.852 61.3211Z" fill="#E6E6E6"/>
<path d="M15.1441 46.865L13.7573 41.4049C11.2982 40.3647 8.78234 39.4637 6.22163 38.7063L6.04651 41.2438L5.33648 38.4482C2.16077 37.543 0.000339508 37.1443 0.000339508 37.1443C0.000339508 37.1443 2.91858 48.2215 9.03938 56.6902L16.1715 57.9407L10.6308 58.7381C11.401 59.6631 12.2288 60.5387 13.1092 61.3599C22.0132 69.6099 31.9307 73.395 35.2604 69.8142C38.5901 66.2335 34.0712 56.6427 25.1672 48.3927C22.4068 45.8352 18.9393 43.7828 15.4683 42.1674L15.1441 46.865Z" fill="#E6E6E6"/>
<path d="M28.3355 40.9359L29.9757 35.5463C28.4093 33.387 26.7222 31.3175 24.9223 29.3479L23.4584 31.4298L24.2982 28.6703C22.0484 26.2568 20.4055 24.8008 20.4055 24.8008C20.4055 24.8008 17.1675 35.7891 18.0218 46.1968L23.4796 50.9473L18.3236 48.7711C18.504 49.9603 18.7592 51.137 19.0876 52.2942C22.4377 63.9508 28.9674 72.3081 33.672 70.9609C38.3767 69.6136 39.4747 59.0719 36.1246 47.4153C35.086 43.8017 33.1804 40.2555 31.0455 37.0818L28.3355 40.9359Z" fill="#E6E6E6"/>
<path d="M43.4146 0.000244141H85.0588L105.881 36L85.0588 72.0001H43.4146L22.5925 36L43.4146 0.000244141Z" fill="#E6E6E6"/>
<path d="M82.726 67.9594H45.756L27.2711 36.0002L45.756 4.04102H82.726L101.211 36.0002L82.726 67.9594Z" fill="white"/>
<path d="M53.3657 25.7895C53.3657 31.7808 64.2337 44.9336 64.2337 44.9336C64.2337 44.9336 75.1016 31.7808 75.1016 25.7895C75.1025 24.3642 74.8221 22.9528 74.2763 21.6358C73.7306 20.3188 72.9302 19.1221 71.9209 18.114C70.9116 17.1059 69.7133 16.3062 68.3942 15.7605C67.0752 15.2149 65.6614 14.9341 64.2337 14.9341C62.8059 14.9341 61.3921 15.2149 60.073 15.7605C58.754 16.3062 57.5556 17.1059 56.5464 18.114C55.5371 19.1221 54.7367 20.3188 54.191 21.6358C53.6452 22.9528 53.3648 24.3642 53.3657 25.7895Z" fill="#81B34C"/>
<path d="M64.2363 30.0541C61.8783 30.0541 59.9668 28.1457 59.9668 25.7917C59.9668 23.4376 61.8783 21.5293 64.2363 21.5293C66.5943 21.5293 68.5059 23.4376 68.5059 25.7917C68.5059 28.1457 66.5943 30.0541 64.2363 30.0541Z" fill="white"/>
<path d="M64.623 57.0602C62.265 57.0602 60.3535 55.1519 60.3535 52.7978C60.3535 50.4437 62.265 48.5354 64.623 48.5354C66.981 48.5354 68.8926 50.4437 68.8926 52.7978C68.8926 55.1519 66.981 57.0602 64.623 57.0602Z" fill="#81B34C"/>
</svg>
