<svg width="84" height="84" viewBox="0 0 84 84" fill="none" xmlns="http://www.w3.org/2000/svg">
<g filter="url(#filter0_f)">
<circle cx="42" cy="42" r="32" fill="#62D6C3"/>
</g>
<path d="M42 46.7304C43.4253 46.7304 44.5806 45.6682 44.5806 44.3579C44.5806 43.0476 43.4253 41.9853 42 41.9853C40.5748 41.9853 39.4194 43.0476 39.4194 44.3579C39.4194 45.6682 40.5748 46.7304 42 46.7304Z" fill="white"/>
<path fill-rule="evenodd" clip-rule="evenodd" d="M42 26L58 34.5807V55.5255H43.8701C43.3879 56.1879 42.963 56.7528 42.6404 57.1749C42.242 57.6964 42 58 42 58C42 58 41.758 57.6964 41.3596 57.1749C41.037 56.7528 40.6121 56.1879 40.1299 55.5255H26V34.5807L42 26ZM43.147 54.5431H43.3275C43.8504 53.8159 44.4245 52.9938 44.998 52.1288C45.9549 50.6856 46.8982 49.1408 47.5988 47.7285C48.3192 46.276 48.7097 45.1044 48.7097 44.3579C48.7097 41.0012 45.7396 38.2226 42 38.2226C38.2604 38.2226 35.2903 41.0012 35.2903 44.3579C35.2903 45.1044 35.6808 46.276 36.4012 47.7285C37.1018 49.1408 38.0451 50.6856 39.002 52.1288C39.5755 52.9938 40.1496 53.8159 40.6725 54.5431H40.853V54.7934C41.0065 55.0053 41.1547 55.208 41.2964 55.4001C41.4129 55.5582 41.5249 55.7091 41.6317 55.8521C41.7066 55.9523 41.7789 56.0487 41.8482 56.1407C41.9005 56.2101 41.9511 56.2771 42 56.3416C42.1137 56.1916 42.237 56.0279 42.3683 55.8521C42.6049 55.5352 42.8673 55.1795 43.147 54.7934V54.5431ZM56.9677 54.5431H44.575C46.8276 51.3574 49.7419 46.7697 49.7419 44.3579C49.7419 40.4269 46.2758 37.2403 42 37.2403C37.7242 37.2403 34.2581 40.4269 34.2581 44.3579C34.2581 46.7697 37.1724 51.3574 39.425 54.5431H27.0323V35.1547L42 27.1276L56.9677 35.1547V54.5431Z" fill="white"/>
<defs>
<filter id="filter0_f" x="0" y="0" width="84" height="84" filterUnits="userSpaceOnUse" color-interpolation-filters="sRGB">
<feFlood flood-opacity="0" result="BackgroundImageFix"/>
<feBlend mode="normal" in="SourceGraphic" in2="BackgroundImageFix" result="shape"/>
<feGaussianBlur stdDeviation="5" result="effect1_foregroundBlur"/>
</filter>
</defs>
</svg>
