<svg width="64" height="64" viewBox="0 0 64 64" fill="none" xmlns="http://www.w3.org/2000/svg">
<circle cx="32" cy="32" r="32" fill="#0077B5"/>
<path d="M43.2106 48.4172L43.1913 33.757C43.1913 33.757 42.3679 30.6988 39.4554 30.8494C36.5429 31 35.5689 31.448 34.2314 33.0213L34.2447 48.4068L26.7766 48.4101L26.7592 25.2611L34.2273 25.2578L34.2283 28.6964C34.2283 28.6964 36.7193 23.9073 41.6917 24.2831C46.3221 24.5797 49.756 27.4122 50.512 33.4623L50.6608 33.4655L50.6673 48.4017L43.2106 48.4172ZM17.8168 22.2951C16.9306 22.2955 16.0642 22.033 15.3271 21.541C14.59 21.0489 14.0154 20.3494 13.6759 19.5308C13.3364 18.7121 13.2472 17.8112 13.4197 16.942C13.5922 16.0727 14.0186 15.2741 14.645 14.6472C15.2714 14.0202 16.0696 13.5931 16.9388 13.4198C17.8079 13.2466 18.7089 13.3349 19.5278 13.6737C20.3467 14.0125 21.0468 14.5865 21.5395 15.3231C22.0322 16.0598 22.2953 16.926 22.2957 17.8122C22.296 18.4007 22.1803 18.9834 21.9554 19.5271C21.7304 20.0709 21.4006 20.565 20.9847 20.9813C20.5688 21.3975 20.075 21.7278 19.5314 21.9532C18.9879 22.1786 18.4053 22.2948 17.8168 22.2951ZM21.5623 48.4318L14.0942 48.4351L14.0769 25.286L21.545 25.2828L21.5623 48.4318Z" fill="white"/>
</svg>
