<svg width="84" height="84" viewBox="0 0 84 84" fill="none" xmlns="http://www.w3.org/2000/svg">
<g filter="url(#filter0_f)">
<circle cx="42" cy="42" r="32" fill="#B0A8E7"/>
</g>
<path fill-rule="evenodd" clip-rule="evenodd" d="M32.971 24L30.0373 27.5095L30.6545 28.0633V28.2206H30.8298L35.2283 32.1668C30.0582 32.608 26 36.9312 26 42.1993C26 47.7606 30.5225 52.269 36.1013 52.269C36.7606 52.269 37.4052 52.206 38.0294 52.0858C39.0194 56.6114 43.0621 60 47.8987 60C53.4775 60 58 55.4917 58 49.9304C58 44.3691 53.4775 39.8607 47.8987 39.8607C47.2394 39.8607 46.5948 39.9237 45.9706 40.0439C44.9889 35.5562 41.0054 32.1865 36.2226 32.1304L40.5805 28.2206H40.7558V28.0633L41.3731 27.5095L38.4393 24H32.971ZM35.2593 30.9987L32.1628 28.2206H35.2593V30.9987ZM36.151 30.9987L39.2476 28.2206H36.151V30.9987ZM31.3466 27.3317H34.926L33.1728 25.1471L31.3466 27.3317ZM35.7052 26.8797L37.3029 24.8889H34.1075L35.7052 26.8797ZM36.4844 27.3317H40.0637L38.2376 25.1471L36.4844 27.3317ZM36.1013 50.4912C36.6851 50.4912 37.2549 50.4312 37.8047 50.3172C37.7999 50.1888 37.7974 50.0599 37.7974 49.9304C37.7974 45.6509 40.4754 41.9949 44.252 40.5369C43.4797 36.7541 40.124 33.9075 36.1013 33.9075C31.5074 33.9075 27.7834 37.6199 27.7834 42.1993C27.7834 46.7788 31.5074 50.4912 36.1013 50.4912ZM47.8987 41.6385C47.3149 41.6385 46.7451 41.6985 46.1953 41.8125C46.2001 41.9409 46.2026 42.0698 46.2026 42.1993C46.2026 46.4788 43.5246 50.1348 39.748 51.5928C40.5203 55.3756 43.876 58.2222 47.8987 58.2222C52.4926 58.2222 56.2166 54.5098 56.2166 49.9304C56.2166 45.3509 52.4926 41.6385 47.8987 41.6385ZM39.5831 49.732C42.3813 48.4445 44.3402 45.6532 44.4169 42.3977C41.6187 43.6852 39.6598 46.4765 39.5831 49.732Z" fill="white"/>
<defs>
<filter id="filter0_f" x="0" y="0" width="84" height="84" filterUnits="userSpaceOnUse" color-interpolation-filters="sRGB">
<feFlood flood-opacity="0" result="BackgroundImageFix"/>
<feBlend mode="normal" in="SourceGraphic" in2="BackgroundImageFix" result="shape"/>
<feGaussianBlur stdDeviation="5" result="effect1_foregroundBlur"/>
</filter>
</defs>
</svg>
