<svg width="62" height="63" viewBox="0 0 62 63" fill="none" xmlns="http://www.w3.org/2000/svg">
<rect x="6" y="0.529053" width="56" height="56.0001" rx="6" fill="url(#paint0_linear)"/>
<path d="M19.7168 27.862C19.7168 23.2649 23.453 19.5288 28.05 19.5288C28.9705 19.5288 29.7165 20.275 29.7165 21.1955C29.7165 22.1159 28.9704 22.8621 28.0499 22.8621C25.2938 22.8621 23.05 25.1059 23.05 27.862C23.05 28.7825 22.3039 29.5286 21.3834 29.5286C20.463 29.5286 19.7168 28.7825 19.7168 27.862Z" fill="#525252"/>
<path fill-rule="evenodd" clip-rule="evenodd" d="M43.3366 42.858C42.7601 42.4116 42.1708 40.7766 41.8101 38.4585C41.4913 36.4092 41.3849 34.314 41.3884 32.873V27.8622C41.3884 20.4985 35.419 14.5291 28.0553 14.5291C20.6917 14.5291 14.7223 20.4985 14.7223 27.8622V32.8621C14.7257 34.314 14.6193 36.4092 14.3005 38.4585C13.9398 40.7766 13.3505 42.4116 12.777 42.8557C11.4912 43.8557 11.8417 45.9628 13.5291 46.3414C15.608 46.7813 17.7025 47.1254 19.8057 47.3743C20.3782 51.4183 23.8535 54.5291 28.0555 54.5291C32.2572 54.5291 35.7323 51.4186 36.3052 47.3751C38.4026 47.1269 40.4903 46.784 42.5617 46.3459C44.2689 45.9627 44.6195 43.8557 43.3366 42.858ZM28.0555 51.1957C25.8177 51.1957 23.9232 49.725 23.2854 47.6977C26.4626 47.9142 29.6505 47.9143 32.8255 47.6983C32.1874 49.7253 30.2931 51.1957 28.0555 51.1957ZM34.7202 44.1963C34.6565 44.1952 34.5921 44.1974 34.5271 44.2037C30.223 44.6232 25.8881 44.6232 21.5841 44.2037C21.5211 44.1976 21.4588 44.1953 21.397 44.1961C19.7076 44.027 18.0234 43.7936 16.3487 43.4955C16.9184 42.3175 17.3102 40.7969 17.5942 38.9709C17.9452 36.7149 18.0594 34.4655 18.0556 32.8651V27.8622C18.0556 22.3394 22.5326 17.8623 28.0554 17.8623C33.5782 17.8623 38.0552 22.3394 38.0552 27.8622V32.8621C38.0514 34.4655 38.1656 36.7149 38.5166 38.9709C38.8007 40.797 39.1925 42.3176 39.7628 43.496C38.0906 43.7939 36.4083 44.0272 34.7202 44.1963Z" fill="#525252"/>
<path fill-rule="evenodd" clip-rule="evenodd" d="M6 6.52905C2.68629 6.52905 0 9.21535 0 12.5291V56.5291C0 59.8428 2.68629 62.5291 6 62.5291H50C53.3137 62.5291 56 59.8428 56 56.5291V12.5291C56 9.21534 53.3137 6.52905 50 6.52905H6ZM50 10.5291H6C4.89543 10.5291 4 11.4245 4 12.5291V56.5291C4 57.6336 4.89543 58.5291 6 58.5291H50C51.1046 58.5291 52 57.6336 52 56.5291V12.5291C52 11.4245 51.1046 10.5291 50 10.5291Z" fill="#525252"/>
<defs>
<linearGradient id="paint0_linear" x1="34" y1="0.529053" x2="34" y2="56.5291" gradientUnits="userSpaceOnUse">
<stop stop-color="#5B92DB"/>
<stop offset="1" stop-color="#5B92DB" stop-opacity="0"/>
</linearGradient>
</defs>
</svg>
