<svg width="62" height="64" viewBox="0 0 62 64" fill="none" xmlns="http://www.w3.org/2000/svg">
<rect x="6" y="0.193848" width="56" height="56" rx="6" fill="url(#paint0_linear)"/>
<path fill-rule="evenodd" clip-rule="evenodd" d="M14.5318 44.1299C13.5705 47.0417 16.2434 49.831 19.0336 48.8278L25.3899 46.5424L59.198 11.2615C60.581 9.81823 60.581 7.47828 59.1981 6.03504L55.5382 2.21573C54.1552 0.77249 51.9129 0.772492 50.5299 2.21573L16.7218 37.4967L14.5318 44.1299ZM17.88 45.3338L19.2305 41.2434L21.7996 43.9245L17.88 45.3338ZM24.8491 41.8804L21.1892 38.061L48.4689 9.59295L52.1288 13.4123L24.8491 41.8804ZM54.6329 10.7991L56.6939 8.64826L53.034 4.82894L50.973 6.97974L54.6329 10.7991Z" fill="#525252"/>
<path d="M5.31205 6.43263C2.37829 6.43263 0 8.91452 0 11.9761V57.6504C0 60.712 2.37829 63.1939 5.31205 63.1939H50.5326C53.4663 63.1939 55.8446 60.712 55.8446 57.6504V23.4421C55.8446 22.4215 55.0519 21.5942 54.0739 21.5942C53.096 21.5942 52.3033 22.4215 52.3033 23.4421V57.6504C52.3033 58.671 51.5105 59.4983 50.5326 59.4983H5.31205C4.33413 59.4983 3.54137 58.671 3.54137 57.6504V11.9761C3.54137 10.9556 4.33413 10.1283 5.31205 10.1283H38.0924C39.0703 10.1283 39.8631 9.30097 39.8631 8.28045C39.8631 7.25992 39.0703 6.43263 38.0924 6.43263H5.31205Z" fill="#525252"/>
<defs>
<linearGradient id="paint0_linear" x1="34" y1="0.193848" x2="34" y2="56.1938" gradientUnits="userSpaceOnUse">
<stop stop-color="#5B92DB"/>
<stop offset="1" stop-color="#5B92DB" stop-opacity="0"/>
</linearGradient>
</defs>
</svg>
