<svg width="64" height="50" viewBox="0 0 64 50" fill="none" xmlns="http://www.w3.org/2000/svg">
<path d="M7.11111 3.55556V1.77778C7.11111 0.795939 7.90705 0 8.88889 0H62.2222C63.2041 0 64 0.795939 64 1.77778V40.8889C64 41.8707 63.2041 42.6667 62.2222 42.6667H60.4444V44.4444C60.4444 45.4263 59.6485 46.2222 58.6667 46.2222H56.8889V48C56.8889 48.9818 56.0929 49.7778 55.1111 49.7778H1.77778C0.795939 49.7778 0 48.9818 0 48V8.88889C0 7.90705 0.795939 7.11111 1.77778 7.11111H3.55556V5.33333C3.55556 4.35149 4.35149 3.55556 5.33333 3.55556H7.11111ZM8.88889 1.77778H62.2222V40.8889H60.4444V5.33333C60.4444 4.35149 59.6485 3.55556 58.6667 3.55556H8.88889V1.77778ZM56.8889 8.88889V44.4444H58.6667V5.33333H5.33333V7.11111H55.1111C56.0929 7.11111 56.8889 7.90705 56.8889 8.88889ZM1.77778 8.88889H55.1111V34.9824L46.0764 24.7431C44.2737 22.7 41.0738 22.7452 39.3295 24.8384L33.3081 32.064L21.3029 19.3728C18.8949 16.8271 14.8607 16.7711 12.3829 19.2489L1.77778 29.854V8.88889ZM44.7434 25.9193L55.1111 37.6694V48H48.3827L34.5384 33.3646L40.6952 25.9765C41.7418 24.7206 43.6617 24.6935 44.7434 25.9193ZM1.77778 32.3682L13.64 20.506C15.4098 18.7361 18.2914 18.7762 20.0114 20.5945L45.9356 48H1.77778V32.3682ZM39.1111 17.7778C39.1111 19.7415 37.5192 21.3333 35.5556 21.3333C33.5919 21.3333 32 19.7415 32 17.7778C32 15.8141 33.5919 14.2222 35.5556 14.2222C37.5192 14.2222 39.1111 15.8141 39.1111 17.7778ZM37.3333 17.7778C37.3333 18.7596 36.5374 19.5556 35.5556 19.5556C34.5737 19.5556 33.7778 18.7596 33.7778 17.7778C33.7778 16.7959 34.5737 16 35.5556 16C36.5374 16 37.3333 16.7959 37.3333 17.7778Z" fill="#ACACAC"/>
<path d="M7.11111 3.55556V1.77778C7.11111 0.795939 7.90705 0 8.88889 0H62.2222C63.2041 0 64 0.795939 64 1.77778V40.8889C64 41.8707 63.2041 42.6667 62.2222 42.6667H60.4444V44.4444C60.4444 45.4263 59.6485 46.2222 58.6667 46.2222H56.8889V48C56.8889 48.9818 56.0929 49.7778 55.1111 49.7778H1.77778C0.795939 49.7778 0 48.9818 0 48V8.88889C0 7.90705 0.795939 7.11111 1.77778 7.11111H3.55556V5.33333C3.55556 4.35149 4.35149 3.55556 5.33333 3.55556H7.11111ZM8.88889 1.77778H62.2222V40.8889H60.4444V5.33333C60.4444 4.35149 59.6485 3.55556 58.6667 3.55556H8.88889V1.77778ZM56.8889 8.88889V44.4444H58.6667V5.33333H5.33333V7.11111H55.1111C56.0929 7.11111 56.8889 7.90705 56.8889 8.88889ZM1.77778 8.88889H55.1111V34.9824L46.0764 24.7431C44.2737 22.7 41.0738 22.7452 39.3295 24.8384L33.3081 32.064L21.3029 19.3728C18.8949 16.8271 14.8607 16.7711 12.3829 19.2489L1.77778 29.854V8.88889ZM44.7434 25.9193L55.1111 37.6694V48H48.3827L34.5384 33.3646L40.6952 25.9765C41.7418 24.7206 43.6617 24.6935 44.7434 25.9193ZM1.77778 32.3682L13.64 20.506C15.4098 18.7361 18.2914 18.7762 20.0114 20.5945L45.9356 48H1.77778V32.3682ZM39.1111 17.7778C39.1111 19.7415 37.5192 21.3333 35.5556 21.3333C33.5919 21.3333 32 19.7415 32 17.7778C32 15.8141 33.5919 14.2222 35.5556 14.2222C37.5192 14.2222 39.1111 15.8141 39.1111 17.7778ZM37.3333 17.7778C37.3333 18.7596 36.5374 19.5556 35.5556 19.5556C34.5737 19.5556 33.7778 18.7596 33.7778 17.7778C33.7778 16.7959 34.5737 16 35.5556 16C36.5374 16 37.3333 16.7959 37.3333 17.7778Z" stroke="#ACACAC"/>
</svg>
