<svg width="84" height="72" viewBox="0 0 84 72" fill="none" xmlns="http://www.w3.org/2000/svg">
<path d="M21.4146 0H63.0588L83.8809 35.9998L63.0588 72H21.4146L0.592453 35.9998L21.4146 0Z" fill="#E6E6E6"/>
<path d="M60.726 67.9581H23.756L5.27107 35.999L23.756 4.03979H60.726L79.2109 35.999L60.726 67.9581Z" fill="white"/>
<path d="M42.2403 18.4421C45.7192 18.4421 49.12 19.4719 52.0126 21.4012C54.9053 23.3305 57.1598 26.0727 58.4911 29.281C59.8225 32.4893 60.1708 36.0197 59.4921 39.4256C58.8134 42.8316 57.1381 45.9601 54.6781 48.4156C52.2182 50.8712 49.084 52.5434 45.6719 53.2209C42.2598 53.8984 38.7231 53.5507 35.509 52.2218C32.2949 50.8928 29.5477 48.6424 27.6149 45.755C25.6821 42.8676 24.6505 39.4729 24.6505 36.0002C24.6641 31.3477 26.5217 26.8897 29.8175 23.5998C33.1133 20.31 37.5794 18.4558 42.2403 18.4421ZM42.2403 23.7096C41.1966 23.7096 40.1764 24.0185 39.3086 24.5973C38.4408 25.1761 37.7644 25.9987 37.365 26.9612C36.9656 27.9237 36.8611 28.9828 37.0647 30.0046C37.2683 31.0264 37.7709 31.965 38.5089 32.7016C39.2469 33.4383 40.1872 33.9399 41.2108 34.1432C42.2344 34.3464 43.2955 34.2421 44.2597 33.8435C45.2239 33.4448 46.0481 32.7696 46.6279 31.9034C47.2077 31.0372 47.5172 30.0188 47.5172 28.977C47.5125 27.5814 46.9551 26.2443 45.9665 25.2575C44.9779 24.2707 43.6384 23.7142 42.2403 23.7096ZM42.2403 49.0675C44.3249 49.058 46.3757 48.541 48.2148 47.5613C50.0539 46.5816 51.6258 45.1688 52.7942 43.4455C52.7096 39.9339 45.7582 38.0008 42.2403 38.0008C38.7223 38.0008 31.771 39.9339 31.6864 43.4455C32.8561 45.1675 34.4283 46.5793 36.2671 47.5588C38.1059 48.5384 40.156 49.0562 42.2403 49.0675Z" fill="#81B34C"/>
</svg>
