<svg width="62" height="62" viewBox="0 0 62 62" fill="none" xmlns="http://www.w3.org/2000/svg">
<rect x="6" width="56" height="56" rx="6" fill="url(#paint0_linear)"/>
<path d="M28 16.5C28.9182 16.5 29.6625 17.2123 29.6625 18.0909V40.0865L38.5556 32.7921C39.2527 32.2203 40.3022 32.2976 40.8998 32.9647C41.4973 33.6318 41.4166 34.6361 40.7194 35.2079L28 45.6408L15.2806 35.2079C14.5834 34.6361 14.5027 33.6318 15.1002 32.9647C15.6978 32.2976 16.7473 32.2203 17.4444 32.7921L26.3375 40.0865V18.0909C26.3375 17.2123 27.0818 16.5 28 16.5Z" fill="#525252"/>
<path d="M11.375 49.9091C11.375 49.0305 12.1193 48.3182 13.0375 48.3182H42.9625C43.8807 48.3182 44.625 49.0305 44.625 49.9091C44.625 50.7878 43.8807 51.5 42.9625 51.5H13.0375C12.1193 51.5 11.375 50.7878 11.375 49.9091Z" fill="#525252"/>
<path fill-rule="evenodd" clip-rule="evenodd" d="M0 12C0 8.68629 2.68629 6 6 6H50C53.3137 6 56 8.68629 56 12V56C56 59.3137 53.3137 62 50 62H6C2.68629 62 0 59.3137 0 56V12ZM6 10H50C51.1046 10 52 10.8954 52 12V56C52 57.1046 51.1046 58 50 58H6C4.89543 58 4 57.1046 4 56V12C4 10.8954 4.89543 10 6 10Z" fill="#525252"/>
<defs>
<linearGradient id="paint0_linear" x1="34" y1="0" x2="34" y2="56" gradientUnits="userSpaceOnUse">
<stop stop-color="#5B92DB"/>
<stop offset="1" stop-color="#5B92DB" stop-opacity="0"/>
</linearGradient>
</defs>
</svg>
