<svg width="64" height="64" viewBox="0 0 64 64" fill="none" xmlns="http://www.w3.org/2000/svg">
<circle cx="32" cy="32" r="32" fill="#1A91DA"/>
<path d="M53.3327 18.7805C51.7345 19.4873 50.0404 19.9535 48.3056 20.1639C50.1351 19.0694 51.504 17.3469 52.1573 15.3176C50.4397 16.3402 48.5586 17.0589 46.5968 17.4424C45.3972 16.1588 43.839 15.2661 42.125 14.8803C40.4111 14.4945 38.6207 14.6335 36.9868 15.2792C35.3529 15.925 33.9512 17.0476 32.9642 18.5009C31.9771 19.9542 31.4503 21.671 31.4523 23.4279C31.449 24.1005 31.5249 24.7712 31.6784 25.4261C28.1955 25.2536 24.7881 24.3487 21.6785 22.7705C18.5689 21.1924 15.827 18.9763 13.6316 16.267C12.5116 18.1974 12.1696 20.4821 12.6752 22.6558C13.1809 24.8295 14.4961 26.7288 16.3531 27.9667C14.9576 27.9322 13.5917 27.5566 12.3749 26.8726V26.9811C12.3744 29.0037 13.0738 30.9642 14.3543 32.5298C15.6348 34.0954 17.4176 35.1697 19.4001 35.5705C18.6485 35.7744 17.8732 35.8778 17.0945 35.8779C16.5419 35.8789 15.9906 35.8244 15.4489 35.7152C16.0081 37.456 17.0974 38.9785 18.5646 40.0695C20.0318 41.1606 21.8034 41.7657 23.6315 41.8001C20.5305 44.2375 16.6988 45.5593 12.7546 45.5523C12.0565 45.5512 11.3591 45.5089 10.666 45.4257C14.6526 48.0201 19.309 49.3963 24.0655 49.3859C40.1864 49.3859 48.9928 36.0316 48.9928 24.4495C48.9928 24.0697 48.9838 23.69 48.9657 23.3193C50.6793 22.0777 52.1581 20.5408 53.3327 18.7805Z" fill="white"/>
</svg>
