<svg width="240" height="240" viewBox="0 0 240 240" fill="none" xmlns="http://www.w3.org/2000/svg">
<circle cx="120" cy="120" r="120" fill="#E0ECF6"/>
<path d="M52.0312 177.646C52.0312 177.646 127.658 114.529 171.214 177.646H52.0312Z" fill="#F2F2F2"/>
<path d="M178.518 151.478C179.032 151.665 179.582 151.73 180.126 151.667C180.669 151.605 181.191 151.418 181.65 151.12C182.108 150.822 182.491 150.421 182.769 149.95C183.046 149.478 183.21 148.949 183.248 148.403C183.286 147.857 183.197 147.31 182.987 146.805C182.777 146.3 182.453 145.85 182.04 145.491C181.627 145.133 181.137 144.875 180.607 144.738C180.077 144.602 179.523 144.59 178.988 144.704L179.077 146.522L178.216 144.964C177.372 145.361 176.72 146.076 176.403 146.953C176.291 147.261 176.222 147.582 176.2 147.909C176.146 148.675 176.343 149.437 176.761 150.082C177.179 150.726 177.796 151.216 178.518 151.478Z" fill="#81B34C"/>
<path d="M182.775 172.563C182.471 171.016 183.787 169.646 185.086 168.755C186.386 167.864 187.904 166.989 188.348 165.477C188.985 163.304 187.087 161.314 185.609 159.598C184.513 158.324 183.572 156.925 182.805 155.43C182.472 154.843 182.245 154.202 182.134 153.535C182.018 152.572 182.327 151.614 182.639 150.695C183.678 147.634 184.788 144.6 185.97 141.59" stroke="#3F3D56" stroke-miterlimit="10"/>
<path d="M178.662 151.01C179.176 151.197 179.727 151.261 180.27 151.199C180.814 151.137 181.335 150.95 181.794 150.652C182.253 150.353 182.636 149.953 182.913 149.481C183.191 149.01 183.355 148.481 183.393 147.935C183.43 147.389 183.341 146.842 183.132 146.337C182.922 145.832 182.598 145.382 182.185 145.023C181.772 144.665 181.281 144.407 180.751 144.27C180.222 144.134 179.668 144.122 179.133 144.236L179.221 146.054L178.361 144.496C177.517 144.892 176.865 145.608 176.548 146.485C176.435 146.792 176.367 147.114 176.345 147.441C176.29 148.207 176.487 148.969 176.906 149.613C177.324 150.257 177.941 150.748 178.662 151.01V151.01Z" stroke="#3F3D56" stroke-miterlimit="10"/>
<path d="M182.341 140.963C182.542 140.406 182.881 139.909 183.325 139.517C183.77 139.126 184.305 138.853 184.883 138.723L185.174 140.451L185.713 138.636C186.461 138.647 187.187 138.896 187.785 139.346C188.383 139.797 188.823 140.425 189.04 141.142C189.257 141.858 189.241 142.625 188.994 143.332C188.747 144.039 188.282 144.649 187.666 145.074C187.05 145.499 186.314 145.717 185.566 145.697C184.818 145.677 184.095 145.42 183.502 144.962C182.91 144.505 182.478 143.871 182.269 143.152C182.06 142.433 182.085 141.666 182.341 140.963H182.341Z" fill="#81B34C"/>
<path d="M182.534 140.338C182.736 139.782 183.074 139.285 183.519 138.893C183.963 138.502 184.499 138.229 185.076 138.099L185.367 139.827L185.906 138.012C186.655 138.023 187.38 138.272 187.979 138.722C188.577 139.173 189.016 139.801 189.233 140.518C189.451 141.234 189.435 142.001 189.188 142.708C188.941 143.415 188.476 144.025 187.859 144.45C187.243 144.875 186.508 145.093 185.759 145.073C185.011 145.053 184.288 144.796 183.696 144.338C183.103 143.881 182.671 143.247 182.462 142.528C182.254 141.809 182.279 141.042 182.534 140.338V140.338Z" stroke="#3F3D56" stroke-miterlimit="10"/>
<path d="M184.988 159.633C185.803 159.929 186.698 159.914 187.504 159.592C188.309 159.27 188.967 158.663 189.354 157.886C189.74 157.11 189.827 156.218 189.598 155.382C189.37 154.545 188.841 153.822 188.113 153.35L187.699 154.745L187.405 152.996C187.402 152.995 187.399 152.994 187.396 152.993C186.96 152.835 186.497 152.764 186.034 152.785C185.571 152.805 185.116 152.917 184.696 153.114C184.276 153.31 183.898 153.587 183.585 153.93C183.273 154.272 183.03 154.672 182.872 155.108C182.714 155.544 182.643 156.007 182.664 156.471C182.684 156.934 182.796 157.389 182.993 157.809C183.189 158.229 183.466 158.606 183.809 158.919C184.151 159.232 184.552 159.475 184.988 159.633Z" fill="#81B34C"/>
<path d="M185.154 159.001C185.969 159.297 186.864 159.282 187.67 158.96C188.475 158.638 189.133 158.03 189.52 157.254C189.906 156.478 189.993 155.586 189.764 154.749C189.536 153.913 189.007 153.19 188.279 152.718L187.865 154.113L187.571 152.364C187.568 152.363 187.565 152.362 187.562 152.361C186.682 152.041 185.71 152.085 184.862 152.481C184.013 152.878 183.357 153.596 183.038 154.476C182.718 155.357 182.762 156.328 183.159 157.177C183.555 158.025 184.273 158.681 185.154 159.001V159.001Z" stroke="#3F3D56" stroke-miterlimit="10"/>
<path d="M181.31 165.498C181.45 166.296 181.86 167.021 182.472 167.552C183.083 168.083 183.859 168.388 184.668 168.415C185.478 168.443 186.272 168.191 186.917 167.702C187.563 167.213 188.021 166.517 188.215 165.731C188.408 164.944 188.326 164.115 187.98 163.383C187.635 162.65 187.049 162.058 186.319 161.707C185.589 161.356 184.761 161.266 183.973 161.452C183.185 161.639 182.485 162.091 181.991 162.733L183.564 165.101L181.414 163.844C181.247 164.379 181.212 164.947 181.31 165.498Z" fill="#81B34C"/>
<path d="M181.455 165.03C181.595 165.828 182.005 166.553 182.616 167.084C183.228 167.615 184.003 167.92 184.813 167.947C185.622 167.975 186.416 167.723 187.062 167.234C187.708 166.745 188.166 166.049 188.359 165.263C188.553 164.476 188.47 163.647 188.125 162.915C187.78 162.182 187.193 161.59 186.463 161.239C185.734 160.888 184.906 160.798 184.118 160.984C183.329 161.171 182.63 161.623 182.135 162.265L183.709 164.633L181.559 163.376C181.392 163.911 181.356 164.479 181.455 165.03V165.03Z" stroke="#3F3D56" stroke-miterlimit="10"/>
<path d="M177.867 174.657C177.867 174.657 180.984 173.435 181.923 172.766C182.863 172.098 186.718 171.299 186.951 172.372C187.184 173.444 191.634 177.707 188.116 177.735C184.597 177.764 179.94 178.313 179.002 177.741C178.065 177.17 177.867 174.657 177.867 174.657Z" fill="#656380"/>
<path opacity="0.2" d="M188.178 177.362C184.66 177.39 180.002 177.939 179.065 177.368C178.351 176.933 178.066 175.373 177.971 174.653C177.905 174.655 177.867 174.657 177.867 174.657C177.867 174.657 178.065 177.17 179.002 177.741C179.94 178.312 184.597 177.764 188.116 177.735C189.131 177.727 189.482 177.366 189.463 176.83C189.322 177.154 188.934 177.356 188.178 177.362Z" fill="black"/>
<path d="M60.8226 141.823H52.5665C51.0779 141.823 49.8711 143.029 49.8711 144.518V175.064C49.8711 176.553 51.0779 177.759 52.5665 177.759H60.8226C62.3112 177.759 63.518 176.553 63.518 175.064V144.518C63.518 143.029 62.3112 141.823 60.8226 141.823Z" fill="#276FCF"/>
<path d="M86.7504 120.215H78.4942C77.0056 120.215 75.7988 121.422 75.7988 122.91V175.064C75.7988 176.553 77.0056 177.759 78.4942 177.759H86.7504C88.239 177.759 89.4457 176.553 89.4457 175.064V122.91C89.4457 121.422 88.239 120.215 86.7504 120.215Z" fill="#276FCF"/>
<path d="M112.68 105.203H104.424C102.935 105.203 101.729 106.41 101.729 107.899V175.064C101.729 176.553 102.935 177.759 104.424 177.759H112.68C114.169 177.759 115.375 176.553 115.375 175.064V107.899C115.375 106.41 114.169 105.203 112.68 105.203Z" fill="#276FCF"/>
<path d="M138.61 90.8741H130.354C128.865 90.8741 127.658 92.0808 127.658 93.5694V175.064C127.658 176.553 128.865 177.759 130.354 177.759H138.61C140.098 177.759 141.305 176.553 141.305 175.064V93.5694C141.305 92.0808 140.098 90.8741 138.61 90.8741Z" fill="#276FCF"/>
<path d="M164.539 65.8547H156.283C154.795 65.8547 153.588 67.0615 153.588 68.5501V175.064C153.588 176.553 154.795 177.759 156.283 177.759H164.539C166.028 177.759 167.235 176.553 167.235 175.064V68.5501C167.235 67.0615 166.028 65.8547 164.539 65.8547Z" fill="#276FCF"/>
<path d="M62.641 140.003H54.3848C52.8962 140.003 51.6895 141.21 51.6895 142.698V173.244C51.6895 174.733 52.8962 175.94 54.3848 175.94H62.641C64.1296 175.94 65.3364 174.733 65.3364 173.244V142.698C65.3364 141.21 64.1296 140.003 62.641 140.003Z" stroke="#3F3D56" stroke-miterlimit="10"/>
<path d="M88.5726 118.395H80.3165C78.8279 118.395 77.6211 119.602 77.6211 121.091V173.244C77.6211 174.733 78.8279 175.94 80.3165 175.94H88.5726C90.0612 175.94 91.268 174.733 91.268 173.244V121.091C91.268 119.602 90.0612 118.395 88.5726 118.395Z" stroke="#3F3D56" stroke-miterlimit="10"/>
<path d="M114.502 103.384H106.246C104.758 103.384 103.551 104.59 103.551 106.079V173.244C103.551 174.733 104.758 175.94 106.246 175.94H114.502C115.991 175.94 117.198 174.733 117.198 173.244V106.079C117.198 104.59 115.991 103.384 114.502 103.384Z" stroke="#3F3D56" stroke-miterlimit="10"/>
<path d="M140.428 89.0545H132.172C130.683 89.0545 129.477 90.2612 129.477 91.7498V173.244C129.477 174.733 130.683 175.94 132.172 175.94H140.428C141.917 175.94 143.123 174.733 143.123 173.244V91.7498C143.123 90.2612 141.917 89.0545 140.428 89.0545Z" stroke="#3F3D56" stroke-miterlimit="10"/>
<path d="M166.358 64.0351H158.102C156.613 64.0351 155.406 65.2419 155.406 66.7305V173.244C155.406 174.733 156.613 175.94 158.102 175.94H166.358C167.846 175.94 169.053 174.733 169.053 173.244V66.7305C169.053 65.2419 167.846 64.0351 166.358 64.0351Z" stroke="#3F3D56" stroke-miterlimit="10"/>
<path d="M195.892 177.873H41" stroke="#3F3D56" stroke-miterlimit="10"/>
<path d="M58.4004 126.242L84.3295 104.635L110.486 89.8505L136.415 75.5213L162.344 50.5019" stroke="#3F3D56" stroke-miterlimit="10"/>
<path d="M57.7168 129.881C59.0986 129.881 60.2187 128.761 60.2187 127.38C60.2187 125.998 59.0986 124.878 57.7168 124.878C56.335 124.878 55.2148 125.998 55.2148 127.38C55.2148 128.761 56.335 129.881 57.7168 129.881Z" fill="#F2F2F2"/>
<path d="M83.6465 108.274C85.0282 108.274 86.1484 107.154 86.1484 105.772C86.1484 104.39 85.0282 103.27 83.6465 103.27C82.2647 103.27 81.1445 104.39 81.1445 105.772C81.1445 107.154 82.2647 108.274 83.6465 108.274Z" fill="#F2F2F2"/>
<path d="M109.805 93.4897C111.186 93.4897 112.307 92.3696 112.307 90.9878C112.307 89.606 111.186 88.4858 109.805 88.4858C108.423 88.4858 107.303 89.606 107.303 90.9878C107.303 92.3696 108.423 93.4897 109.805 93.4897Z" fill="#F2F2F2"/>
<path d="M135.732 79.1605C137.114 79.1605 138.234 78.0403 138.234 76.6585C138.234 75.2767 137.114 74.1566 135.732 74.1566C134.351 74.1566 133.23 75.2767 133.23 76.6585C133.23 78.0403 134.351 79.1605 135.732 79.1605Z" fill="#F2F2F2"/>
<path d="M161.66 54.1411C163.042 54.1411 164.162 53.021 164.162 51.6392C164.162 50.2574 163.042 49.1373 161.66 49.1373C160.278 49.1373 159.158 50.2574 159.158 51.6392C159.158 53.021 160.278 54.1411 161.66 54.1411Z" fill="#F2F2F2"/>
<path d="M58.3984 128.744C59.7802 128.744 60.9004 127.624 60.9004 126.242C60.9004 124.861 59.7802 123.74 58.3984 123.74C57.0166 123.74 55.8965 124.861 55.8965 126.242C55.8965 127.624 57.0166 128.744 58.3984 128.744Z" stroke="#3F3D56" stroke-miterlimit="10"/>
<path d="M84.3281 107.137C85.7099 107.137 86.83 106.016 86.83 104.635C86.83 103.253 85.7099 102.133 84.3281 102.133C82.9463 102.133 81.8262 103.253 81.8262 104.635C81.8262 106.016 82.9463 107.137 84.3281 107.137Z" stroke="#3F3D56" stroke-miterlimit="10"/>
<path d="M110.486 92.3525C111.868 92.3525 112.988 91.2323 112.988 89.8505C112.988 88.4688 111.868 87.3486 110.486 87.3486C109.105 87.3486 107.984 88.4688 107.984 89.8505C107.984 91.2323 109.105 92.3525 110.486 92.3525Z" stroke="#3F3D56" stroke-miterlimit="10"/>
<path d="M136.416 78.0232C137.798 78.0232 138.918 76.9031 138.918 75.5213C138.918 74.1395 137.798 73.0193 136.416 73.0193C135.034 73.0193 133.914 74.1395 133.914 75.5213C133.914 76.9031 135.034 78.0232 136.416 78.0232Z" stroke="#3F3D56" stroke-miterlimit="10"/>
<path d="M162.342 53.0039C163.724 53.0039 164.844 51.8837 164.844 50.5019C164.844 49.1202 163.724 48 162.342 48C160.96 48 159.84 49.1202 159.84 50.5019C159.84 51.8837 160.96 53.0039 162.342 53.0039Z" stroke="#3F3D56" stroke-miterlimit="10"/>
<path d="M63.8226 75.3639C63.8226 76.2591 63.6152 77.0998 63.2003 77.8858C62.8073 78.6719 62.1959 79.3379 61.3662 79.8837C61.257 79.9493 61.0387 80.113 60.7111 80.375C60.3836 80.6152 60.0888 80.7681 59.8268 80.8336C59.8268 81.1174 59.8377 81.3467 59.8596 81.5214L59.8923 82.4057C59.8923 83.5848 59.4884 84.1743 58.6805 84.1743H57.4686C57.3595 84.218 57.1739 84.2398 56.9118 84.2398C56.0384 84.2398 55.4707 84.1198 55.2087 83.8796C54.9467 83.6612 54.8157 83.3009 54.8157 82.7987V82.2747C54.8157 81.6851 54.7065 81.2812 54.4882 81.0628C54.2916 80.8663 54.0405 80.7135 53.7348 80.6043C53.4292 80.4951 53.1999 80.4078 53.047 80.3423C52.0645 79.9493 51.3657 79.316 50.9509 78.4426C50.5578 77.5692 50.3613 76.4884 50.3613 75.2001C50.3613 74.4796 50.3722 73.9883 50.3941 73.7263C50.4378 73.4424 50.5797 73.2131 50.8199 73.0385C51.0601 72.8419 51.4749 72.7437 52.0645 72.7437C53.2217 72.7437 54.0296 72.7764 54.4882 72.8419C54.9467 72.9074 55.2633 73.0821 55.438 73.366C55.6345 73.628 55.7328 74.1084 55.7328 74.8071C55.7764 74.9599 55.8092 75.1892 55.831 75.4949C55.8747 75.7788 55.9729 76.008 56.1258 76.1827C56.2786 76.3356 56.5516 76.412 56.9446 76.412C57.294 76.412 57.6106 76.3137 57.8944 76.1172C58.2001 75.8989 58.353 75.5932 58.353 75.2001C58.353 74.6543 58.0909 74.0647 57.5669 73.4315C57.0647 72.7764 56.5952 72.2633 56.1585 71.8921C55.7218 71.5209 55.0668 70.9969 54.1934 70.32C53.0798 69.4466 52.1955 68.5186 51.5404 67.536C50.9072 66.5534 50.5906 65.4289 50.5906 64.1625C50.5906 63.2454 50.8745 62.4157 51.4422 61.6733C52.0317 60.9091 52.7959 60.3086 53.7348 59.8719C53.8877 59.8064 54.0842 59.7409 54.3244 59.6754C54.5646 59.5881 54.7502 59.5116 54.8812 59.4461C54.772 58.9221 54.7174 58.2452 54.7174 57.4155C54.7174 56.8914 54.772 56.5421 54.8812 56.3674C55.0122 56.1709 55.2087 56.0617 55.4707 56.0399C55.7546 56.018 56.3441 56.0071 57.2394 56.0071C58.8988 56.0071 59.7286 56.2145 59.7286 56.6294V59.4461L59.7613 59.5116L59.8268 59.5771C62.6435 60.2322 64.0519 62.0991 64.0519 65.1778C64.0519 65.7892 63.9209 66.1822 63.6589 66.3569C63.4187 66.5098 63.0584 66.5862 62.578 66.5862C62.4689 66.5644 62.3051 66.5534 62.0868 66.5534C61.8684 66.5534 61.6719 66.5644 61.4972 66.5862C61.3225 66.608 61.1588 66.6299 61.0059 66.6517C60.0233 66.6517 59.3792 66.5098 59.0735 66.2259C58.7897 65.9421 58.6259 65.5381 58.5822 65.0141C58.5386 64.6429 58.4512 64.3699 58.3202 64.1953C58.211 64.0206 57.9381 63.9332 57.5014 63.9332C57.1084 63.9332 56.7918 64.0752 56.5516 64.359C56.3114 64.6429 56.1913 64.9813 56.1913 65.3744C56.1913 66.1167 56.497 66.7718 57.1084 67.3395C57.7197 67.8854 58.5931 68.5077 59.7286 69.2064C60.2526 69.4903 60.7111 69.785 61.1042 70.0907C61.9557 70.7458 62.6217 71.5428 63.1021 72.4817C63.5825 73.3987 63.8226 74.3595 63.8226 75.3639ZM55.8965 65.3416C55.8965 64.8612 56.0384 64.4573 56.3223 64.1298C56.6062 63.8022 57.0101 63.6385 57.5341 63.6385C57.9927 63.6385 58.2984 63.7476 58.4512 63.966C58.6041 64.1625 58.7242 64.4791 58.8115 64.9158C58.9207 65.3962 59.0626 65.7565 59.2373 65.9967C59.4338 66.215 59.8159 66.3242 60.3836 66.3242C60.6238 66.3242 60.9404 66.3023 61.3334 66.2587C61.6828 66.215 61.9448 66.1932 62.1195 66.1932L62.7746 66.2259C63.1021 66.2259 63.3423 66.1713 63.4951 66.0622L63.5606 65.9967C63.6261 65.8875 63.6589 65.691 63.6589 65.4071C63.6589 64.228 63.4514 63.2345 63.0366 62.4266C62.6217 61.5969 61.9557 60.8763 61.0387 60.2649C60.8203 60.1339 60.5583 60.0466 60.2526 60.0029C59.9032 59.9374 59.6412 59.8282 59.4665 59.6754C59.3137 59.5007 59.2373 59.1404 59.2373 58.5946C59.2373 58.2889 59.27 57.9723 59.3355 57.6447C59.3792 57.208 59.401 56.8914 59.401 56.6949L59.3355 56.6294C59.0735 56.4984 58.746 56.422 58.353 56.4001C57.9599 56.3565 57.5887 56.3456 57.2394 56.3674C56.9118 56.3674 56.6935 56.3674 56.5843 56.3674C55.6017 56.3674 55.0777 56.4766 55.0122 56.6949L55.0777 57.4155C55.0995 57.743 55.1214 58.1033 55.1432 58.4963C55.1869 58.8675 55.2087 59.2059 55.2087 59.5116C55.2087 59.6645 55.0122 59.8064 54.6192 59.9374C54.2261 60.0466 53.9859 60.123 53.8986 60.1667C53.0034 60.5597 52.2828 61.1165 51.7369 61.8371C51.2129 62.5358 50.9509 63.3437 50.9509 64.2608C50.9509 65.1997 51.1256 66.0294 51.4749 66.75C51.8243 67.4705 52.2501 68.0819 52.7523 68.5841C53.2763 69.0863 53.9859 69.7086 54.8812 70.451C55.8856 71.2371 56.6062 71.8594 57.0429 72.3179C57.5451 72.8201 57.9381 73.2896 58.222 73.7263C58.5058 74.163 58.6477 74.6324 58.6477 75.1346C58.6477 75.6368 58.484 76.0408 58.1564 76.3465C57.8289 76.6303 57.4468 76.7723 57.0101 76.7723C56.5079 76.7723 56.1039 76.5867 55.7983 76.2155C55.5144 75.8443 55.3725 75.2984 55.3725 74.5778L55.4052 74.152C55.4052 73.5407 54.9794 73.235 54.1279 73.235C53.975 73.235 53.7021 73.2131 53.3091 73.1695C52.7632 73.104 52.4247 73.0821 52.2937 73.104C52.2282 73.104 52.0208 73.104 51.6714 73.104C51.3221 73.0821 51.0601 73.1913 50.8854 73.4315C50.7325 73.6717 50.6561 74.032 50.6561 74.5123V75.1674C50.6561 76.3028 50.7871 77.209 51.0491 77.8858C51.333 78.5409 51.6605 79.0103 52.0317 79.2942C52.4247 79.5781 52.916 79.851 53.5056 80.113C54.0733 80.375 54.4882 80.6371 54.7502 80.8991C55.034 81.1611 55.176 81.576 55.176 82.1437L55.1432 83.29C55.2087 83.552 55.3616 83.7158 55.6017 83.7813C55.8638 83.8686 56.1695 83.9123 56.5188 83.9123C56.6717 83.9123 56.8354 83.9014 57.0101 83.8796C57.2066 83.8577 57.3485 83.8359 57.4359 83.8141C57.9163 83.7704 58.2547 83.7486 58.4512 83.7486C58.6477 83.7486 58.8006 83.7595 58.9098 83.7813C59.1063 83.7595 59.2482 83.6503 59.3355 83.4538C59.4447 83.2791 59.4993 82.9625 59.4993 82.504V80.9646C59.4993 80.7462 59.5648 80.5934 59.6958 80.506H59.7286C62.2614 79.2396 63.5279 77.602 63.5279 75.5932C63.5279 74.6106 63.2768 73.6389 62.7746 72.6782C62.2942 71.7174 61.6719 70.9423 60.9077 70.3527C60.9077 70.3527 60.4491 70.0471 59.5321 69.4357C58.353 68.6933 57.4468 68.0273 56.8136 67.4378C56.2022 66.8482 55.8965 66.1495 55.8965 65.3416Z" fill="black"/>
<path d="M78.4078 75.3639C78.4078 76.2591 78.2003 77.0998 77.7855 77.8858C77.3924 78.6719 76.7811 79.3379 75.9513 79.8837C75.8422 79.9493 75.6238 80.113 75.2963 80.375C74.9688 80.6152 74.674 80.7681 74.412 80.8336C74.412 81.1174 74.4229 81.3467 74.4447 81.5214L74.4775 82.4057C74.4775 83.5848 74.0735 84.1743 73.2656 84.1743H72.0538C71.9446 84.218 71.759 84.2398 71.497 84.2398C70.6236 84.2398 70.0559 84.1198 69.7938 83.8796C69.5318 83.6612 69.4008 83.3009 69.4008 82.7987V82.2747C69.4008 81.6851 69.2916 81.2812 69.0733 81.0628C68.8768 80.8663 68.6257 80.7135 68.32 80.6043C68.0143 80.4951 67.785 80.4078 67.6322 80.3423C66.6496 79.9493 65.9509 79.316 65.536 78.4426C65.143 77.5692 64.9465 76.4884 64.9465 75.2001C64.9465 74.4796 64.9574 73.9883 64.9792 73.7263C65.0229 73.4424 65.1648 73.2131 65.405 73.0385C65.6452 72.8419 66.0601 72.7437 66.6496 72.7437C67.8069 72.7437 68.6148 72.7764 69.0733 72.8419C69.5318 72.9074 69.8484 73.0821 70.0231 73.366C70.2196 73.628 70.3179 74.1084 70.3179 74.8071C70.3616 74.9599 70.3943 75.1892 70.4161 75.4949C70.4598 75.7788 70.5581 76.008 70.7109 76.1827C70.8638 76.3356 71.1367 76.412 71.5297 76.412C71.8791 76.412 72.1957 76.3137 72.4796 76.1172C72.7853 75.8989 72.9381 75.5932 72.9381 75.2001C72.9381 74.6543 72.6761 74.0647 72.152 73.4315C71.6498 72.7764 71.1804 72.2633 70.7437 71.8921C70.307 71.5209 69.6519 70.9969 68.7785 70.32C67.6649 69.4466 66.7806 68.5186 66.1256 67.536C65.4923 66.5534 65.1757 65.4289 65.1757 64.1625C65.1757 63.2454 65.4596 62.4157 66.0273 61.6733C66.6168 60.9091 67.3811 60.3086 68.32 59.8719C68.4728 59.8064 68.6693 59.7409 68.9095 59.6754C69.1497 59.5881 69.3353 59.5116 69.4663 59.4461C69.3571 58.9221 69.3026 58.2452 69.3026 57.4155C69.3026 56.8914 69.3571 56.5421 69.4663 56.3674C69.5973 56.1709 69.7938 56.0617 70.0559 56.0399C70.3397 56.018 70.9293 56.0071 71.8245 56.0071C73.484 56.0071 74.3137 56.2145 74.3137 56.6294V59.4461L74.3465 59.5116L74.412 59.5771C77.2287 60.2322 78.637 62.0991 78.637 65.1778C78.637 65.7892 78.506 66.1822 78.244 66.3569C78.0038 66.5098 77.6436 66.5862 77.1632 66.5862C77.054 66.5644 76.8902 66.5534 76.6719 66.5534C76.4535 66.5534 76.257 66.5644 76.0823 66.5862C75.9077 66.608 75.7439 66.6299 75.5911 66.6517C74.6085 66.6517 73.9643 66.5098 73.6587 66.2259C73.3748 65.9421 73.211 65.5381 73.1674 65.0141C73.1237 64.6429 73.0364 64.3699 72.9053 64.1953C72.7962 64.0206 72.5232 63.9332 72.0865 63.9332C71.6935 63.9332 71.3769 64.0752 71.1367 64.359C70.8965 64.6429 70.7764 64.9813 70.7764 65.3744C70.7764 66.1167 71.0821 66.7718 71.6935 67.3395C72.3049 67.8854 73.1783 68.5077 74.3137 69.2064C74.8377 69.4903 75.2963 69.785 75.6893 70.0907C76.5409 70.7458 77.2069 71.5428 77.6872 72.4817C78.1676 73.3987 78.4078 74.3595 78.4078 75.3639ZM70.4817 65.3416C70.4817 64.8612 70.6236 64.4573 70.9074 64.1298C71.1913 63.8022 71.5952 63.6385 72.1193 63.6385C72.5778 63.6385 72.8835 63.7476 73.0364 63.966C73.1892 64.1625 73.3093 64.4791 73.3966 64.9158C73.5058 65.3962 73.6477 65.7565 73.8224 65.9967C74.0189 66.215 74.401 66.3242 74.9688 66.3242C75.2089 66.3242 75.5256 66.3023 75.9186 66.2587C76.2679 66.215 76.53 66.1932 76.7046 66.1932L77.3597 66.2259C77.6872 66.2259 77.9274 66.1713 78.0803 66.0622L78.1458 65.9967C78.2113 65.8875 78.244 65.691 78.244 65.4071C78.244 64.228 78.0366 63.2345 77.6217 62.4266C77.2069 61.5969 76.5409 60.8763 75.6238 60.2649C75.4055 60.1339 75.1434 60.0466 74.8377 60.0029C74.4884 59.9374 74.2264 59.8282 74.0517 59.6754C73.8988 59.5007 73.8224 59.1404 73.8224 58.5946C73.8224 58.2889 73.8552 57.9723 73.9207 57.6447C73.9643 57.208 73.9862 56.8914 73.9862 56.6949L73.9207 56.6294C73.6587 56.4984 73.3311 56.422 72.9381 56.4001C72.5451 56.3565 72.1739 56.3456 71.8245 56.3674C71.497 56.3674 71.2786 56.3674 71.1695 56.3674C70.1869 56.3674 69.6628 56.4766 69.5973 56.6949L69.6628 57.4155C69.6847 57.743 69.7065 58.1033 69.7283 58.4963C69.772 58.8675 69.7938 59.2059 69.7938 59.5116C69.7938 59.6645 69.5973 59.8064 69.2043 59.9374C68.8113 60.0466 68.5711 60.123 68.4837 60.1667C67.5885 60.5597 66.868 61.1165 66.3221 61.8371C65.798 62.5358 65.536 63.3437 65.536 64.2608C65.536 65.1997 65.7107 66.0294 66.0601 66.75C66.4094 67.4705 66.8352 68.0819 67.3374 68.5841C67.8614 69.0863 68.5711 69.7086 69.4663 70.451C70.4707 71.2371 71.1913 71.8594 71.628 72.3179C72.1302 72.8201 72.5232 73.2896 72.8071 73.7263C73.0909 74.163 73.2329 74.6324 73.2329 75.1346C73.2329 75.6368 73.0691 76.0408 72.7416 76.3465C72.4141 76.6303 72.0319 76.7723 71.5952 76.7723C71.093 76.7723 70.6891 76.5867 70.3834 76.2155C70.0995 75.8443 69.9576 75.2984 69.9576 74.5778L69.9904 74.152C69.9904 73.5407 69.5646 73.235 68.713 73.235C68.5602 73.235 68.2872 73.2131 67.8942 73.1695C67.3483 73.104 67.0099 73.0821 66.8789 73.104C66.8134 73.104 66.6059 73.104 66.2566 73.104C65.9072 73.0821 65.6452 73.1913 65.4705 73.4315C65.3177 73.6717 65.2412 74.032 65.2412 74.5123V75.1674C65.2412 76.3028 65.3722 77.209 65.6343 77.8858C65.9181 78.5409 66.2457 79.0103 66.6168 79.2942C67.0099 79.5781 67.5012 79.851 68.0907 80.113C68.6584 80.375 69.0733 80.6371 69.3353 80.8991C69.6192 81.1611 69.7611 81.576 69.7611 82.1437L69.7283 83.29C69.7938 83.552 69.9467 83.7158 70.1869 83.7813C70.4489 83.8686 70.7546 83.9123 71.104 83.9123C71.2568 83.9123 71.4206 83.9014 71.5952 83.8796C71.7918 83.8577 71.9337 83.8359 72.021 83.8141C72.5014 83.7704 72.8398 83.7486 73.0364 83.7486C73.2329 83.7486 73.3857 83.7595 73.4949 83.7813C73.6914 83.7595 73.8333 83.6503 73.9207 83.4538C74.0299 83.2791 74.0844 82.9625 74.0844 82.504V80.9646C74.0844 80.7462 74.1499 80.5934 74.281 80.506H74.3137C76.8466 79.2396 78.113 77.602 78.113 75.5932C78.113 74.6106 77.8619 73.6389 77.3597 72.6782C76.8793 71.7174 76.257 70.9423 75.4928 70.3527C75.4928 70.3527 75.0343 70.0471 74.1172 69.4357C72.9381 68.6933 72.0319 68.0273 71.3987 67.4378C70.7873 66.8482 70.4817 66.1495 70.4817 65.3416Z" fill="black"/>
<path d="M92.9929 75.3639C92.9929 76.2591 92.7855 77.0998 92.3706 77.8858C91.9776 78.6719 91.3662 79.3379 90.5365 79.8837C90.4273 79.9493 90.2089 80.113 89.8814 80.375C89.5539 80.6152 89.2591 80.7681 88.9971 80.8336C88.9971 81.1174 89.008 81.3467 89.0299 81.5214L89.0626 82.4057C89.0626 83.5848 88.6587 84.1743 87.8508 84.1743H86.6389C86.5297 84.218 86.3441 84.2398 86.0821 84.2398C85.2087 84.2398 84.641 84.1198 84.379 83.8796C84.117 83.6612 83.986 83.3009 83.986 82.7987V82.2747C83.986 81.6851 83.8768 81.2812 83.6584 81.0628C83.4619 80.8663 83.2108 80.7135 82.9051 80.6043C82.5994 80.4951 82.3702 80.4078 82.2173 80.3423C81.2347 79.9493 80.536 79.316 80.1211 78.4426C79.7281 77.5692 79.5316 76.4884 79.5316 75.2001C79.5316 74.4796 79.5425 73.9883 79.5644 73.7263C79.608 73.4424 79.75 73.2131 79.9901 73.0385C80.2303 72.8419 80.6452 72.7437 81.2347 72.7437C82.392 72.7437 83.1999 72.7764 83.6584 72.8419C84.117 72.9074 84.4336 73.0821 84.6083 73.366C84.8048 73.628 84.903 74.1084 84.903 74.8071C84.9467 74.9599 84.9795 75.1892 85.0013 75.4949C85.045 75.7788 85.1432 76.008 85.2961 76.1827C85.4489 76.3356 85.7218 76.412 86.1149 76.412C86.4642 76.412 86.7808 76.3137 87.0647 76.1172C87.3704 75.8989 87.5232 75.5932 87.5232 75.2001C87.5232 74.6543 87.2612 74.0647 86.7372 73.4315C86.235 72.7764 85.7655 72.2633 85.3288 71.8921C84.8921 71.5209 84.2371 70.9969 83.3637 70.32C82.2501 69.4466 81.3657 68.5186 80.7107 67.536C80.0775 66.5534 79.7609 65.4289 79.7609 64.1625C79.7609 63.2454 80.0447 62.4157 80.6124 61.6733C81.202 60.9091 81.9662 60.3086 82.9051 59.8719C83.058 59.8064 83.2545 59.7409 83.4947 59.6754C83.7348 59.5881 83.9204 59.5116 84.0515 59.4461C83.9423 58.9221 83.8877 58.2452 83.8877 57.4155C83.8877 56.8914 83.9423 56.5421 84.0515 56.3674C84.1825 56.1709 84.379 56.0617 84.641 56.0399C84.9249 56.018 85.5144 56.0071 86.4096 56.0071C88.0691 56.0071 88.8988 56.2145 88.8988 56.6294V59.4461L88.9316 59.5116L88.9971 59.5771C91.8138 60.2322 93.2222 62.0991 93.2222 65.1778C93.2222 65.7892 93.0912 66.1822 92.8292 66.3569C92.589 66.5098 92.2287 66.5862 91.7483 66.5862C91.6391 66.5644 91.4754 66.5534 91.257 66.5534C91.0387 66.5534 90.8422 66.5644 90.6675 66.5862C90.4928 66.608 90.329 66.6299 90.1762 66.6517C89.1936 66.6517 88.5495 66.5098 88.2438 66.2259C87.9599 65.9421 87.7962 65.5381 87.7525 65.0141C87.7088 64.6429 87.6215 64.3699 87.4905 64.1953C87.3813 64.0206 87.1084 63.9332 86.6717 63.9332C86.2786 63.9332 85.962 64.0752 85.7218 64.359C85.4817 64.6429 85.3616 64.9813 85.3616 65.3744C85.3616 66.1167 85.6673 66.7718 86.2786 67.3395C86.89 67.8854 87.7634 68.5077 88.8988 69.2064C89.4229 69.4903 89.8814 69.785 90.2745 70.0907C91.126 70.7458 91.792 71.5428 92.2724 72.4817C92.7527 73.3987 92.9929 74.3595 92.9929 75.3639ZM85.0668 65.3416C85.0668 64.8612 85.2087 64.4573 85.4926 64.1298C85.7764 63.8022 86.1804 63.6385 86.7044 63.6385C87.163 63.6385 87.4686 63.7476 87.6215 63.966C87.7743 64.1625 87.8944 64.4791 87.9818 64.9158C88.0909 65.3962 88.2329 65.7565 88.4076 65.9967C88.6041 66.215 88.9862 66.3242 89.5539 66.3242C89.7941 66.3242 90.1107 66.3023 90.5037 66.2587C90.8531 66.215 91.1151 66.1932 91.2898 66.1932L91.9448 66.2259C92.2724 66.2259 92.5125 66.1713 92.6654 66.0622L92.7309 65.9967C92.7964 65.8875 92.8292 65.691 92.8292 65.4071C92.8292 64.228 92.6217 63.2345 92.2069 62.4266C91.792 61.5969 91.126 60.8763 90.2089 60.2649C89.9906 60.1339 89.7286 60.0466 89.4229 60.0029C89.0735 59.9374 88.8115 59.8282 88.6368 59.6754C88.484 59.5007 88.4076 59.1404 88.4076 58.5946C88.4076 58.2889 88.4403 57.9723 88.5058 57.6447C88.5495 57.208 88.5713 56.8914 88.5713 56.6949L88.5058 56.6294C88.2438 56.4984 87.9163 56.422 87.5232 56.4001C87.1302 56.3565 86.759 56.3456 86.4096 56.3674C86.0821 56.3674 85.8638 56.3674 85.7546 56.3674C84.772 56.3674 84.248 56.4766 84.1825 56.6949L84.248 57.4155C84.2698 57.743 84.2916 58.1033 84.3135 58.4963C84.3572 58.8675 84.379 59.2059 84.379 59.5116C84.379 59.6645 84.1825 59.8064 83.7894 59.9374C83.3964 60.0466 83.1562 60.123 83.0689 60.1667C82.1736 60.5597 81.4531 61.1165 80.9072 61.8371C80.3832 62.5358 80.1211 63.3437 80.1211 64.2608C80.1211 65.1997 80.2958 66.0294 80.6452 66.75C80.9945 67.4705 81.4203 68.0819 81.9225 68.5841C82.4466 69.0863 83.1562 69.7086 84.0515 70.451C85.0559 71.2371 85.7764 71.8594 86.2131 72.3179C86.7153 72.8201 87.1084 73.2896 87.3922 73.7263C87.6761 74.163 87.818 74.6324 87.818 75.1346C87.818 75.6368 87.6542 76.0408 87.3267 76.3465C86.9992 76.6303 86.6171 76.7723 86.1804 76.7723C85.6782 76.7723 85.2742 76.5867 84.9685 76.2155C84.6847 75.8443 84.5427 75.2984 84.5427 74.5778L84.5755 74.152C84.5755 73.5407 84.1497 73.235 83.2981 73.235C83.1453 73.235 82.8724 73.2131 82.4793 73.1695C81.9335 73.104 81.595 73.0821 81.464 73.104C81.3985 73.104 81.1911 73.104 80.8417 73.104C80.4923 73.0821 80.2303 73.1913 80.0556 73.4315C79.9028 73.6717 79.8264 74.032 79.8264 74.5123V75.1674C79.8264 76.3028 79.9574 77.209 80.2194 77.8858C80.5033 78.5409 80.8308 79.0103 81.202 79.2942C81.595 79.5781 82.0863 79.851 82.6758 80.113C83.2436 80.375 83.6584 80.6371 83.9204 80.8991C84.2043 81.1611 84.3462 81.576 84.3462 82.1437L84.3135 83.29C84.379 83.552 84.5318 83.7158 84.772 83.7813C85.034 83.8686 85.3397 83.9123 85.6891 83.9123C85.8419 83.9123 86.0057 83.9014 86.1804 83.8796C86.3769 83.8577 86.5188 83.8359 86.6062 83.8141C87.0865 83.7704 87.425 83.7486 87.6215 83.7486C87.818 83.7486 87.9709 83.7595 88.08 83.7813C88.2765 83.7595 88.4185 83.6503 88.5058 83.4538C88.615 83.2791 88.6696 82.9625 88.6696 82.504V80.9646C88.6696 80.7462 88.7351 80.5934 88.8661 80.506H88.8988C91.4317 79.2396 92.6981 77.602 92.6981 75.5932C92.6981 74.6106 92.447 73.6389 91.9448 72.6782C91.4645 71.7174 90.8422 70.9423 90.0779 70.3527C90.0779 70.3527 89.6194 70.0471 88.7023 69.4357C87.5232 68.6933 86.6171 68.0273 85.9839 67.4378C85.3725 66.8482 85.0668 66.1495 85.0668 65.3416Z" fill="black"/>
</svg>
