<svg width="40" height="64" viewBox="0 0 40 64" fill="none" xmlns="http://www.w3.org/2000/svg">
<path fill-rule="evenodd" clip-rule="evenodd" d="M25.125 25.2516C29.9451 23.2739 33.3334 18.5907 33.3334 13.1282C33.3334 5.8777 27.3638 0 20 0C12.6362 0 6.6667 5.8777 6.6667 13.1282C6.6667 18.5906 10.055 23.2739 14.875 25.2516C6.31236 27.4244 0 34.9122 0 43.8154V58C0 61.3137 2.79821 64 6.25 64H33.75C37.2018 64 40 61.3137 40 58V43.8154C40 34.9122 33.6877 27.4244 25.125 25.2516ZM29.1667 13.1282C29.1667 18.2656 24.9638 22.2564 20 22.2564C15.0362 22.2564 10.8334 18.2656 10.8334 13.1282C10.8334 7.99077 15.0362 4 20 4C24.9638 4 29.1667 7.99077 29.1667 13.1282ZM4.16667 58V43.8154C4.16667 35.4207 11.2555 28.6154 20 28.6154C28.7445 28.6154 35.8333 35.4207 35.8333 43.8154V58C35.8333 59.1046 34.9006 60 33.75 60H6.25C5.09941 60 4.16667 59.1046 4.16667 58Z" fill="#525252"/>
</svg>
